<?xml version="1.0" ?><svg id="Layeri" viewBox="0 0 108 108" xmlns="http://www.w3.org/2000/svg" xmlns:xlink="http://www.w3.org/1999/xlink"><defs><style>.cls-1{fill:none;}.cls-2{clip-path:url(#clip-path);}</style><clipPath id="clip-path"><rect class="cls-1" height="104" width="104" x="2" y="2"/></clipPath></defs><title/><g class="cls-2"><path d="M101.58,44.37,106,46.85l-2,3.47L99,47.56A10.13,10.13,0,0,1,89,56H18.51a10.15,10.15,0,0,1-10-8.18L8.1,48,4,50.32,2,46.84l4.08-2.27.35-.2-1.11-.61L2,41.9l2-3.48,3.34,1.87c.39.22.78.44,1.18.65a10.19,10.19,0,0,1,10-7.94H33v4H31v6.9A2.06,2.06,0,0,1,29.32,46,2,2,0,0,1,27,44V37H18.95a7.16,7.16,0,0,0-4.24,1.76c-3.05,2.82-3.05,8.66,0,11.48A7.16,7.16,0,0,0,18.95,52h68.6a7.5,7.5,0,0,0,0-15H82v6.9A2.06,2.06,0,0,1,80.32,46,2,2,0,0,1,78,44V37H56v6.9A2.06,2.06,0,0,1,54.32,46,2,2,0,0,1,52,44V37H45V33H89a10.16,10.16,0,0,1,10,8.21l5-2.79,2,3.48Z"/><path d="M72,61V72.81A10.2,10.2,0,0,1,61.81,83H56v17H52V83H46.19A10.2,10.2,0,0,1,36,72.81V61h4V72.81A6.2,6.2,0,0,0,46.19,79H52V61h4V79h5.81A6.2,6.2,0,0,0,68,72.81V61Z"/><rect height="4" rx="2" ry="2" width="4" x="37" y="33"/></g></svg>