<?xml version="1.0" ?><!DOCTYPE svg  PUBLIC '-//W3C//DTD SVG 20010904//EN'  'http://www.w3.org/TR/2001/REC-SVG-20010904/DTD/svg10.dtd'><svg viewBox="0 0 682.667 682.667" xmlns="http://www.w3.org/2000/svg" xmlns:xlink="http://www.w3.org/1999/xlink"><style>:root>svg{display:none}:root>svg:target{display:block}</style><svg viewBox="0 0 32 32" id="buy-icon" xmlns="http://www.w3.org/2000/svg"><defs><style>.acls-1{fill:none}</style></defs><g data-name="Layer 2" id="aLayer_2"><path d="M23.52 29h-15a5.48 5.48 0 01-5.31-6.83L6.25 9.76a1 1 0 011-.76H24a1 1 0 011 .7l3.78 12.16a5.49 5.49 0 01-.83 4.91A5.41 5.41 0 0123.52 29zM8 11L5.11 22.65A3.5 3.5 0 008.48 27h15a3.44 3.44 0 002.79-1.42 3.5 3.5 0 00.53-3.13L23.28 11z"/><path d="M20 17a1 1 0 01-1-1V8a3 3 0 00-6 0v8a1 1 0 01-2 0V8a5 5 0 0110 0v8a1 1 0 01-1 1z"/></g><path class="acls-1" d="M0 0h32v32H0z" id="aframe"/></svg><svg viewBox="0 0 35 27" fill="none" id="contacts-mail" xmlns="http://www.w3.org/2000/svg"><path fill-rule="evenodd" clip-rule="evenodd" d="M32.279 20.933L23.618 13l8.66-7.933-1.18-1.262L18.5 15.344 5.902 3.805l-1.18 1.262L13.381 13l-8.66 7.933 1.18 1.262 8.76-8.023 3.838 3.515 3.838-3.515 8.76 8.023 1.18-1.262zM3.152.5C1.534.5.222 1.898.222 3.616v18.768c0 1.721 1.301 3.116 2.93 3.116h30.696c1.618 0 2.93-1.398 2.93-3.116V3.616c0-1.721-1.301-3.116-2.93-3.116H3.152z" fill="#fff"/></svg><svg viewBox="0 0 35 30" fill="none" id="contacts-phone" xmlns="http://www.w3.org/2000/svg"><path fill-rule="evenodd" clip-rule="evenodd" d="M18 2.172c-5.593 0-11.2.946-13.233 2.83-1.688 1.563-2.25 4.325-2.44 6.073 0 0-.027.173-.027.247 0 .686.589 1.236 1.309 1.236.085 0 3.231-.241 5.128-.39.046-.006.092-.012.137-.024.707-.018 1.276-.562 1.276-1.236l.007-2.434c0-.754.647-1.36 1.445-1.36h12.795c.799 0 1.447.606 1.447 1.36l.006 2.434c0 .674.57 1.218 1.276 1.236.045.012.091.018.137.025 1.897.148 5.044.389 5.128.389.72 0 1.309-.55 1.309-1.236 0-.074-.026-.247-.026-.247-.19-1.748-.752-4.51-2.44-6.073C29.2 3.118 23.593 2.172 18 2.172zm0 16.063c-1.446 0-2.617 1.106-2.617 2.472 0 1.365 1.171 2.47 2.617 2.47s2.617-1.105 2.617-2.47c0-1.366-1.171-2.472-2.617-2.472zm-1.962-5.56v-1.544c0-.853-.733-1.545-1.636-1.545-.902 0-1.635.692-1.635 1.545v1.544l-8.825 8.903a3.008 3.008 0 00-.988 2.212v2.477c0 1.366 1.171 2.471 2.617 2.471h.654v1.545c0 .852.733 1.544 1.636 1.544.902 0 1.635-.692 1.635-1.544v-1.545h17.008v1.545c0 .852.733 1.544 1.636 1.544.902 0 1.635-.692 1.635-1.544v-1.545h.654c1.446 0 2.616-1.105 2.616-2.47V23.79c0-.866-.379-1.65-.987-2.212l-8.825-8.903v-1.544c0-.853-.733-1.545-1.635-1.545-.903 0-1.635.692-1.635 1.545v1.544h-3.925zM18 15.765c2.891 0 5.233 2.211 5.233 4.942 0 2.73-2.341 4.942-5.233 4.942-2.891 0-5.233-2.212-5.233-4.942 0-2.731 2.342-4.943 5.233-4.943z" fill="#fff"/></svg><svg fill="none" viewBox="0 0 48 48" id="instagram-icon-mono" xmlns="http://www.w3.org/2000/svg"><path fill-rule="evenodd" clip-rule="evenodd" d="M0 24C0 10.745 10.745 0 24 0s24 10.745 24 24-10.745 24-24 24S0 37.255 0 24zm24.001-12.8c-3.476 0-3.912.015-5.278.077-1.362.063-2.293.279-3.106.595a6.268 6.268 0 00-2.268 1.476 6.284 6.284 0 00-1.477 2.267c-.318.814-.534 1.745-.595 3.107-.061 1.365-.077 1.802-.077 5.278 0 3.476.016 3.911.077 5.277.063 1.362.279 2.293.595 3.106a6.271 6.271 0 001.476 2.268 6.268 6.268 0 002.267 1.477c.814.317 1.745.532 3.107.595 1.366.062 1.802.077 5.278.077 3.476 0 3.911-.015 5.276-.077 1.363-.063 2.294-.278 3.109-.595a6.263 6.263 0 002.266-1.477 6.284 6.284 0 001.477-2.267c.315-.814.53-1.745.595-3.107.061-1.365.077-1.8.077-5.277 0-3.476-.016-3.912-.077-5.278-.064-1.363-.28-2.293-.595-3.107a6.283 6.283 0 00-1.477-2.267 6.256 6.256 0 00-2.267-1.476c-.816-.316-1.747-.532-3.11-.595-1.365-.062-1.8-.077-5.277-.077h.004z" fill="#fff"/><path fill-rule="evenodd" clip-rule="evenodd" d="M22.853 13.507H24c3.418 0 3.823.012 5.172.073 1.249.057 1.926.266 2.377.441.597.232 1.023.51 1.471.957.448.448.725.875.958 1.473.175.45.384 1.127.44 2.375.062 1.35.075 1.755.075 5.171 0 3.416-.013 3.822-.074 5.17-.057 1.249-.266 1.926-.441 2.377a3.958 3.958 0 01-.958 1.47 3.958 3.958 0 01-1.47.958c-.452.176-1.13.384-2.377.44-1.35.062-1.755.075-5.173.075s-3.823-.013-5.172-.074c-1.248-.058-1.925-.266-2.377-.442a3.964 3.964 0 01-1.472-.957 3.967 3.967 0 01-.958-1.471c-.175-.45-.384-1.128-.44-2.376-.062-1.35-.074-1.755-.074-5.173s.012-3.821.073-5.17c.057-1.249.266-1.926.441-2.377.232-.598.51-1.024.958-1.472a3.973 3.973 0 011.472-.958c.451-.176 1.129-.384 2.377-.441 1.18-.054 1.638-.07 4.024-.072v.003zm7.98 2.125a1.536 1.536 0 100 3.072 1.536 1.536 0 000-3.072zm-6.832 1.795a6.574 6.574 0 100 13.147 6.574 6.574 0 000-13.147z" fill="#fff"/><path fill-rule="evenodd" clip-rule="evenodd" d="M24.001 19.733a4.267 4.267 0 110 8.534 4.267 4.267 0 010-8.534z" fill="#fff"/></svg><svg version="1.0" viewBox="0 0 512 512" id="mail-icon-mono" xmlns="http://www.w3.org/2000/svg"><path d="M228.5 22.2c-31.1 3.5-68.3 16.5-95.5 33.3-22 13.7-47.2 36.1-62.2 55.5-25.6 33.1-41.7 71.2-48 113.5-2 13.6-1.7 51.2.5 65.5C33.6 356.5 70.4 414.5 126 451.6c28.7 19.1 62.3 32 96.6 37.1 16.4 2.4 50.4 2.4 66.8 0 41.1-6.1 81.5-23.7 113.6-49.4 45.9-36.8 76.4-89.7 85.7-148.5 2.5-15.9 2.5-53.7 0-69.6-8.3-52.4-32.9-99.5-70.8-135.6-37-35.2-86.1-58.1-136.1-63.5-11.4-1.3-41.9-1.2-53.3.1zM407 141.9c0 .5-1.8 2.4-3.9 4.3-7.8 6.6-64.1 58.5-67.6 62.2-1.8 1.9-32.2 30.2-56.7 52.7-11.7 10.8-16.7 13.9-22.6 13.9-7.8 0-8.1-.2-49.6-38.4-8.3-7.6-19.1-17.8-24.1-22.5-16.1-15.5-64.7-60.3-73.6-67.9-2.1-1.9-3.9-3.8-3.9-4.3s60.1-.9 151-.9 151 .4 151 .9zm-269 54.3c15.1 13.8 33.1 30.5 40 37l12.4 11.8-3.9 3.9c-2.2 2.1-21.8 20.2-43.5 40.1-21.7 20-43.1 39.8-47.5 44-4.4 4.3-9.9 9.4-12.2 11.5l-4.3 3.7v-97.1c0-99.4 0-99 3.8-103.3 1.4-1.6 2.4-.8 14.6 10.7 7.2 6.8 25.5 23.8 40.6 37.7zm293.2-45.1c1.7 3.2 1.8 10 1.8 100.3v96.8l-6.4-5.8C412 329 336 258.1 329.5 251.8l-7-6.9 9.6-9.2c5.2-5.1 23.9-22.3 41.4-38.2 17.6-16 36.9-33.8 43-39.7 6-5.9 11.5-10.6 12-10.5.6.2 1.8 1.9 2.7 3.8zm-211.7 120c20.1 18.8 23 20.4 37 20.4 14.3 0 17.1-1.5 36.7-19.9 8.7-8.1 16.2-14.6 16.7-14.4.6.1 7.9 6.9 16.3 14.9s28.4 26.6 44.3 41.3c42.7 39.4 56 52 56 53.1 0 .5-1.6 1.8-3.5 2.8-3.3 1.6-12.9 1.7-168 1.5-163.2-.3-164.5-.3-167.7-2.3l-3.2-2 15.7-14.7c8.6-8 31-28.8 49.7-46.1 18.7-17.4 38.3-35.6 43.5-40.6 5.2-4.9 9.7-9 10-9 .3 0 7.7 6.7 16.5 15z"/></svg><svg fill="none" viewBox="0 0 48 48" id="telegram-icon-mono" xmlns="http://www.w3.org/2000/svg"><path fill-rule="evenodd" clip-rule="evenodd" d="M48 24c0 13.255-10.745 24-24 24S0 37.255 0 24 10.745 0 24 0s24 10.745 24 24zm-31.928-2.198c-2.405 1.05-4.875 2.128-7.134 3.372-1.18.864.388 1.474 1.86 2.047.233.092.464.182.682.272.18.055.365.114.551.173 1.636.521 3.46 1.103 5.048.229 2.608-1.499 5.07-3.231 7.53-4.962.806-.568 1.611-1.135 2.422-1.693l.128-.083c.69-.447 2.243-1.454 1.669-.067-1.358 1.486-2.814 2.8-4.276 4.123-.986.891-1.976 1.785-2.942 2.738-.841.683-1.715 2.058-.773 3.015 2.17 1.52 4.374 3.001 6.576 4.483.717.482 1.434.964 2.149 1.447 1.212.968 3.107.185 3.373-1.328l.356-2.087c.658-3.844 1.316-7.69 1.897-11.548.079-.605.168-1.21.258-1.815.217-1.467.435-2.936.503-4.41-.175-1.473-1.96-1.15-2.953-.818-5.106 1.942-10.16 4.029-15.194 6.152-.57.253-1.148.505-1.73.76z" fill="#fff"/></svg><svg fill="none" viewBox="0 0 48 48" id="viber-icon-mono" xmlns="http://www.w3.org/2000/svg"><path fill-rule="evenodd" clip-rule="evenodd" d="M24 0c13.255 0 24 10.745 24 24S37.255 48 24 48 0 37.255 0 24 10.745 0 24 0zm6.394 20.958c-.117-.948-.408-1.692-.926-2.352-.672-.85-1.53-1.358-2.802-1.66-.83-.2-1.164-.178-1.464.096-.279.257-.334.771-.12 1.104.15.242.323.328.804.423.642.118 1.085.27 1.488.501.855.494 1.253 1.267 1.296 2.518.02.588.07.769.276.977.38.381 1.057.307 1.344-.149.106-.172.122-.247.133-.646a6.33 6.33 0 00-.029-.812zm.012-5.818c2.033 1.645 3.17 3.982 3.339 6.888.07 1.144-.024 1.517-.427 1.729a.862.862 0 01-1.06-.164c-.188-.193-.26-.456-.258-.923.009-1.29-.288-2.73-.772-3.73a7.204 7.204 0 00-2.51-2.876c-.953-.636-2.213-1.065-3.435-1.172-.793-.07-1.076-.204-1.228-.584-.095-.227-.07-.62.04-.796.105-.162.34-.342.506-.39.175-.05 1.2.039 1.755.15 1.518.309 2.904.944 4.05 1.868zm7.046 18.076a3.194 3.194 0 00-.284-.569c-.597-.901-3.803-3.41-5.404-4.231-.915-.47-1.592-.627-2.094-.48-.54.152-.824.404-1.729 1.528-.365.45-.739.873-.838.94-.247.17-.73.308-1.07.308-.792-.005-2.227-.517-3.33-1.191-.858-.522-1.957-1.457-2.8-2.381-.995-1.087-1.672-2.045-2.207-3.127-.692-1.39-.867-2.239-.578-2.86a2.3 2.3 0 01.208-.375c.043-.047.488-.413.98-.811.967-.769 1.123-.944 1.303-1.47.227-.67.166-1.353-.185-2.04-.27-.523-.975-1.661-1.487-2.396-.677-.968-2.364-3.036-2.7-3.316-.606-.494-1.383-.58-2.24-.247-.905.351-2.6 1.717-3.325 2.67-.654.864-.905 1.476-.943 2.283-.033.664.024.939.374 1.788 2.743 6.66 6.835 11.978 12.458 16.2 2.936 2.206 5.982 3.886 9.142 5.034 1.842.668 2.643.702 3.585.151.398-.237 1.383-1.247 1.933-1.983.91-1.224 1.246-1.788 1.34-2.239.066-.308.014-.844-.109-1.186zm-1.21-15.015c.576 1.502.853 2.85.914 4.494.01.325.005.92-.016 1.322-.044.773-.086.926-.309 1.13-.357.336-1.054.256-1.318-.148-.138-.217-.157-.376-.13-1.278.076-2.67-.464-4.76-1.764-6.85-1.554-2.507-3.88-4.196-6.902-5.023-.771-.21-1.42-.338-2.431-.474-.658-.087-.803-.123-.965-.223-.49-.314-.497-1.11-.008-1.43.252-.168.439-.175 1.261-.07 2.413.302 4.566 1.019 6.335 2.102 1.268.778 2.068 1.476 3.097 2.7 1.089 1.304 1.666 2.27 2.235 3.748z" fill="#fff"/></svg><svg fill="none" viewBox="0 0 48 48" id="vk-icon-mono" xmlns="http://www.w3.org/2000/svg"><path fill-rule="evenodd" clip-rule="evenodd" d="M0 24C0 10.745 10.745 0 24 0s24 10.745 24 24-10.745 24-24 24S0 37.255 0 24zm25.256 7.876s.462-.05.698-.3c.217-.228.21-.66.21-.66s-.03-2.014.923-2.312c.94-.292 2.145 1.948 3.425 2.81.966.651 1.7.509 1.7.509l3.42-.047s1.788-.108.94-1.488c-.07-.113-.495-1.022-2.542-2.887-2.145-1.953-1.857-1.638.725-5.016 1.573-2.058 2.201-3.314 2.005-3.85-.187-.515-1.344-.378-1.344-.378l-3.849.023s-.285-.038-.497.086c-.206.122-.34.406-.34.406s-.609 1.591-1.422 2.946c-1.714 2.856-2.398 3.007-2.679 2.83-.652-.414-.49-1.661-.49-2.547 0-2.77.429-3.924-.832-4.222-.418-.1-.726-.165-1.797-.176-1.373-.013-2.536.005-3.194.32-.438.211-.776.68-.57.708.254.033.83.152 1.136.56.394.527.38 1.71.38 1.71s.227 3.26-.53 3.663c-.517.278-1.229-.288-2.758-2.88-.782-1.328-1.373-2.795-1.373-2.795s-.114-.274-.318-.422c-.247-.178-.591-.233-.591-.233l-3.657.023s-.55.015-.752.25c-.179.207-.013.638-.013.638s2.863 6.577 6.106 9.892c2.974 3.038 6.35 2.84 6.35 2.84h1.53z" fill="#000"/></svg><svg fill="none" viewBox="0 0 48 48" id="whatsapp-icon-mono" xmlns="http://www.w3.org/2000/svg"><path fill-rule="evenodd" clip-rule="evenodd" d="M24 48C10.745 48 0 37.255 0 24S10.745 0 24 0s24 10.745 24 24-10.745 24-24 24zm.791-10.648c7.869-.003 14.268-6.404 14.271-14.27a14.184 14.184 0 00-4.176-10.097A14.18 14.18 0 0024.791 8.8c-7.866 0-14.268 6.402-14.271 14.27a14.246 14.246 0 001.905 7.135L10.4 37.6l7.565-1.985a14.26 14.26 0 006.82 1.737h.006z" fill="#fff"/><path fill-rule="evenodd" clip-rule="evenodd" d="M18.316 33.032l-4.49 1.178 1.199-4.378-.282-.448a11.833 11.833 0 01-1.814-6.313c.003-6.54 5.324-11.86 11.867-11.86a11.78 11.78 0 018.386 3.478 11.79 11.79 0 013.47 8.392c-.002 6.54-5.323 11.861-11.86 11.861h-.006c-2.128 0-4.216-.572-6.037-1.653l-.433-.257zm13.665-6.557c-.09-.149-.327-.238-.684-.416-.356-.179-2.11-1.041-2.436-1.16-.327-.12-.565-.179-.803.178-.237.357-.92 1.16-1.129 1.398-.208.238-.416.268-.772.09-.357-.18-1.506-.556-2.868-1.77-1.06-.946-1.776-2.114-1.984-2.47-.207-.358-.022-.55.157-.729.16-.16.357-.416.535-.624.178-.208.238-.357.356-.595.12-.238.06-.446-.03-.625-.088-.178-.802-1.933-1.099-2.647-.29-.696-.583-.602-.802-.613a14.21 14.21 0 00-.684-.012c-.237 0-.624.089-.95.446-.327.357-1.248 1.22-1.248 2.975 0 1.755 1.277 3.45 1.456 3.689.178.238 2.514 3.84 6.091 5.384.85.367 1.515.587 2.033.751.854.271 1.632.233 2.246.141.685-.102 2.11-.862 2.407-1.695.297-.833.297-1.547.208-1.696z" fill="#fff"/></svg><svg fill="none" viewBox="0 0 48 48" id="youtube-icon-mono" xmlns="http://www.w3.org/2000/svg"><path fill-rule="evenodd" clip-rule="evenodd" d="M0 24C0 10.745 10.745 0 24 0s24 10.745 24 24-10.745 24-24 24S0 37.255 0 24zm36.265-5.927c-.294-1.13-1.162-2.021-2.263-2.324C32.005 15.2 24 15.2 24 15.2s-8.005 0-10.002.55c-1.101.302-1.969 1.192-2.263 2.323-.535 2.05-.535 6.327-.535 6.327s0 4.277.535 6.327c.294 1.13 1.162 2.021 2.263 2.324C15.995 33.6 24 33.6 24 33.6s8.005 0 10.002-.55c1.101-.302 1.969-1.192 2.263-2.323.535-2.05.535-6.327.535-6.327s0-4.277-.535-6.327z" fill="#000"/><path fill-rule="evenodd" clip-rule="evenodd" d="M21.6 28.8v-8l6.4 4-6.4 4z" fill="#000"/></svg></svg>