<svg width="30" height="28" viewBox="0 0 35 30" fill="none" xmlns="http://www.w3.org/2000/svg"><path fill-rule="evenodd" clip-rule="evenodd" d="M18 2.172c-5.593 0-11.2.946-13.233 2.83-1.688 1.563-2.25 4.325-2.44 6.073 0 0-.027.173-.027.247 0 .686.589 1.236 1.309 1.236.085 0 3.231-.241 5.128-.39.046-.006.092-.012.137-.024.707-.018 1.276-.562 1.276-1.236l.007-2.434c0-.754.647-1.36 1.445-1.36h12.795c.799 0 1.447.606 1.447 1.36l.006 2.434c0 .674.57 1.218 1.276 1.236.045.012.091.018.137.025 1.897.148 5.044.389 5.128.389.72 0 1.309-.55 1.309-1.236 0-.074-.026-.247-.026-.247-.19-1.748-.752-4.51-2.44-6.073C29.2 3.118 23.593 2.172 18 2.172zm0 16.063c-1.446 0-2.617 1.106-2.617 2.472 0 1.365 1.171 2.47 2.617 2.47s2.617-1.105 2.617-2.47c0-1.366-1.171-2.472-2.617-2.472zm-1.962-5.56v-1.544c0-.853-.733-1.545-1.636-1.545-.902 0-1.635.692-1.635 1.545v1.544l-8.825 8.903a3.008 3.008 0 00-.988 2.212v2.477c0 1.366 1.171 2.471 2.617 2.471h.654v1.545c0 .852.733 1.544 1.636 1.544.902 0 1.635-.692 1.635-1.544v-1.545h17.008v1.545c0 .852.733 1.544 1.636 1.544.902 0 1.635-.692 1.635-1.544v-1.545h.654c1.446 0 2.616-1.105 2.616-2.47V23.79c0-.866-.379-1.65-.987-2.212l-8.825-8.903v-1.544c0-.853-.733-1.545-1.635-1.545-.903 0-1.635.692-1.635 1.545v1.544h-3.925zM18 15.765c2.891 0 5.233 2.211 5.233 4.942 0 2.73-2.341 4.942-5.233 4.942-2.891 0-5.233-2.212-5.233-4.942 0-2.731 2.342-4.943 5.233-4.943z" fill="#ead39c"/></svg>