<svg xmlns="http://www.w3.org/2000/svg" viewBox="0 0 490 490"><g fill="#ead39c"><path d="M490 268.656l-87.933-99.281h-81.483v-39.274h-97.209c-18.689-39.949-59.262-67.695-106.199-67.695C52.567 62.406 0 114.973 0 179.583c0 44.856 25.342 83.9 62.456 103.586v92.515h44.57c1.194 28.824 25.007 51.909 54.119 51.909s52.925-23.085 54.119-51.909h121.927c1.194 28.824 25.008 51.909 54.12 51.909 29.111 0 52.925-23.085 54.119-51.909H490V268.656zM20.417 179.583c0-53.355 43.405-96.761 96.76-96.761 53.354 0 96.76 43.406 96.76 96.761 0 53.354-43.406 96.76-96.76 96.76-53.356 0-96.76-43.406-96.76-96.76zm140.728 227.594c-18.617 0-33.76-15.143-33.76-33.76 0-18.617 15.143-33.76 33.76-33.76 18.617 0 33.76 15.143 33.76 33.76 0 18.617-15.143 33.76-33.76 33.76zm139.023-51.909h-87.984c-7.48-20.972-27.531-36.027-51.039-36.027-23.508 0-43.559 15.056-51.039 36.027H82.872v-63.636a116.784 116.784 0 0034.304 5.128c64.61 0 117.176-52.567 117.176-117.176a117.02 117.02 0 00-3.65-29.065h69.465v204.749zm91.143 51.909c-18.618 0-33.761-15.143-33.761-33.76 0-18.617 15.143-33.76 33.761-33.76 18.617 0 33.76 15.143 33.76 33.76 0 18.617-15.143 33.76-33.76 33.76zm78.272-51.909H442.35c-7.48-20.972-27.532-36.027-51.039-36.027-23.508 0-43.56 15.056-51.04 36.027h-19.686V189.792h72.291l76.707 86.611v78.865z"/><path d="M162.969 194.442l-35.584-20.726v-68.163h-20.417v79.897l45.723 26.637z"/></g></svg>