<svg xmlns="http://www.w3.org/2000/svg" width="793.707" height="1122.52"><defs><clipPath clipPathUnits="userSpaceOnUse" id="a"><path d="M0 841.89h595.28V0H0z"/></clipPath></defs><g clip-path="url(#a)" transform="matrix(1.33333 0 0 -1.33333 0 1122.52)" fill="#231200"><path d="M230.634 349.592v.254c.274 0 .463.07.565.212.103.141.155.423.155.844v4.668h-.638c-.448 0-.758-.08-.932-.24-.174-.16-.31-.494-.41-1h-.255V356h6.39v-1.672h-.254c-.083.456-.204.778-.364.963-.16.185-.482.278-.966.278h-.652v-4.668c0-.435.051-.718.154-.85.103-.134.292-.202.566-.206v-.254zm9.696 3.894c0 .736-.04 1.24-.12 1.516-.08.273-.206.48-.375.623a.562.562 0 01-.383.124c-.238 0-.433-.117-.583-.35-.27-.407-.405-.965-.405-1.673v-.24zm1.686-.46h-3.518c.042-.85.268-1.521.68-2.015.315-.38.694-.57 1.137-.57.274 0 .524.078.747.232.224.152.464.427.72.825l.234-.151c-.348-.71-.732-1.21-1.152-1.505a2.488 2.488 0 00-1.46-.442c-.95 0-1.67.366-2.16 1.098-.393.589-.589 1.32-.589 2.193 0 1.069.288 1.92.867 2.554.578.633 1.255.949 2.032.949.65 0 1.212-.267 1.69-.8.478-.531.734-1.321.772-2.367m4.649-3.435v.254c.229.004.417.06.566.168.148.106.223.35.223.723v4.833h-1.81v-2.804c0-1.01-.051-1.707-.151-2.09-.1-.385-.295-.68-.583-.886a1.553 1.553 0 00-.918-.307c-.366 0-.66.11-.881.332a1.048 1.048 0 00-.333.764c0 .28.082.506.243.682a.818.818 0 00.628.265c.489 0 .733-.298.733-.892 0-.27.053-.404.158-.404.2 0 .356.167.466.5.11.334.165 1.012.165 2.036v1.864c0 .421-.057.71-.172.864-.114.156-.311.241-.59.254v.253h5.65v-.253c-.457-.01-.686-.298-.686-.864v-4.12c0-.316.048-.545.144-.689.096-.144.277-.22.542-.229v-.254zm6.603 6.595c.315 0 .583-.11.805-.333.222-.222.333-.49.333-.805 0-.315-.111-.584-.333-.805a1.096 1.096 0 00-.805-.333c-.315 0-.584.11-.806.333-.221.22-.332.49-.332.805 0 .316.11.583.332.805.222.223.49.333.806.333m-.007-4.483c.319 0 .59-.113.812-.336.222-.224.333-.493.333-.81 0-.314-.112-.583-.336-.805a1.112 1.112 0 00-.81-.333c-.314 0-.583.112-.804.333a1.098 1.098 0 00-.333.806c0 .316.11.585.333.809.22.223.49.336.805.336m6.823 2.989h3.297v3.29h.899v-3.29h3.298v-.905h-3.298v-3.263h-.898v3.263h-3.297zm10.566-5.293l2.53 7.672h-1.927c-.754 0-1.32-.1-1.7-.295-.265-.138-.484-.396-.658-.775h-.261l.672 2.886h5.539l-3.12-9.488zm13.254 9.7v-.315c-.476-.311-.825-.615-1.05-.912-.31-.411-.552-.939-.726-1.584-.22-.799-.33-1.917-.33-3.351 0-1.354.1-2.404.299-3.154.199-.749.47-1.355.813-1.817.237-.319.569-.6.994-.843v-.342c-1.102.37-2.035 1.125-2.801 2.265-.765 1.141-1.148 2.45-1.148 3.932 0 1.462.382 2.757 1.145 3.883.763 1.127 1.698 1.873 2.804 2.238m4.882-5.19c.045.512.068.963.068 1.351 0 .832-.095 1.606-.288 2.324-.109.398-.27.69-.486.879a.657.657 0 01-.446.15.607.607 0 01-.535-.295c-.178-.27-.267-.785-.267-1.543 0-1.265.151-2.139.453-2.619.196-.31.461-.466.795-.466.178 0 .414.073.706.22m-3.935-4.512v.193c.758.173 1.402.43 1.93.767.527.34.946.757 1.254 1.255a5.01 5.01 0 01.648 1.721 4.168 4.168 0 00-.723-.306 2.306 2.306 0 00-.628-.085c-.703 0-1.289.253-1.758.761-.469.507-.703 1.202-.703 2.084 0 .612.127 1.173.381 1.683s.616.905 1.087 1.186c.47.28.96.421 1.467.421.543 0 1.058-.155 1.542-.466.484-.31.871-.76 1.16-1.35.286-.59.43-1.262.43-2.016 0-.978-.234-1.915-.702-2.81-.469-.896-1.167-1.615-2.095-2.157-.927-.54-2.024-.835-3.29-.88m11.511 9.68v-7.603c0-.571.025-.935.076-1.092a.705.705 0 01.315-.388c.16-.101.416-.15.768-.15h.212v-.254h-4.894v.254h.247c.397 0 .68.045.85.136a.704.704 0 01.342.377c.06.16.09.532.09 1.117v4.82c0 .429-.02.698-.062.805a.585.585 0 01-.23.275.68.68 0 01-.387.113c-.233 0-.517-.073-.85-.22l-.124.248 3.421 1.562zm6.597 0v-7.603c0-.571.024-.935.075-1.092a.707.707 0 01.316-.388c.16-.101.416-.15.767-.15h.213v-.254h-4.894v.254h.246c.397 0 .681.045.85.136a.708.708 0 01.343.377c.059.16.089.532.089 1.117v4.82c0 .429-.021.698-.062.805a.583.583 0 01-.229.275.68.68 0 01-.388.113c-.233 0-.516-.073-.849-.22l-.124.248 3.42 1.562zm2.97-12.298v.315c.476.316.825.622 1.049.918.305.413.548.938.726 1.578.22.804.329 1.923.329 3.359 0 1.352-.1 2.402-.297 3.149-.2.747-.47 1.352-.813 1.814-.237.319-.57.6-.994.843v.342c1.102-.37 2.035-1.125 2.8-2.265.765-1.14 1.148-2.45 1.148-3.932 0-1.457-.383-2.75-1.148-3.876-.765-1.127-1.698-1.875-2.8-2.245m13.288 12.298v-7.603c0-.571.024-.935.075-1.092a.707.707 0 01.316-.388c.16-.101.416-.15.767-.15h.213v-.254h-4.894v.254h.246c.397 0 .68.045.85.136a.708.708 0 01.343.377c.059.16.089.532.089 1.117v4.82c0 .429-.021.698-.062.805a.583.583 0 01-.23.275.68.68 0 01-.387.113c-.233 0-.516-.073-.85-.22l-.123.248 3.42 1.562zm4.875-4.827v.24c.52.152.882.291 1.083.422.2.13.375.33.52.597.148.266.22.538.22.811 0 .38-.137.705-.414.978-.276.271-.62.407-1.032.407-.64 0-1.184-.338-1.631-1.015l-.254.09c.329.763.75 1.337 1.265 1.721a2.802 2.802 0 001.718.575c.643 0 1.174-.196 1.593-.589.418-.393.627-.852.627-1.378 0-.342-.096-.672-.291-.99-.194-.318-.5-.598-.916-.84.535-.26.944-.582 1.224-.964.28-.38.422-.86.422-1.436 0-.969-.351-1.792-1.052-2.47-.702-.68-1.643-1.019-2.821-1.019-.786 0-1.36.131-1.721.39-.261.184-.391.42-.391.707 0 .21.076.39.227.538a.72.72 0 00.52.223.95.95 0 00.425-.097c.074-.036.333-.236.779-.599.445-.364.863-.545 1.25-.545.339 0 .629.134.872.401.242.268.363.607.363 1.018 0 .627-.22 1.203-.658 1.731-.44.528-1.081.892-1.927 1.093m9.688 0c0 1.628-.01 2.575-.027 2.846-.046.634-.156 1.064-.329 1.288-.115.146-.3.22-.556.22-.196 0-.352-.055-.466-.166-.169-.159-.284-.44-.343-.845-.059-.405-.089-1.817-.089-4.234 0-1.316.045-2.198.137-2.646.07-.324.167-.54.295-.65a.751.751 0 01.507-.166c.228 0 .4.074.515.22.191.256.301.651.33 1.186zm2.111-.014c0-.927-.13-1.793-.39-2.597-.156-.494-.365-.899-.628-1.214a3.123 3.123 0 00-.895-.75 2.197 2.197 0 00-1.09-.279c-.448 0-.852.115-1.212.343-.362.23-.682.556-.96.981-.202.311-.377.724-.529 1.241a7.984 7.984 0 00-.294 2.166c0 1.01.141 1.937.425 2.783.233.7.587 1.236 1.063 1.608.475.373.977.558 1.507.558.54 0 1.043-.183 1.512-.552.47-.367.813-.862 1.032-1.484.306-.854.46-1.789.46-2.804m5.204-2.131H337.1v1.419h3.996zm5.081 2.145c0 1.628-.01 2.575-.027 2.846-.046.634-.156 1.064-.33 1.288-.114.146-.298.22-.555.22-.196 0-.352-.055-.466-.166-.17-.159-.283-.44-.343-.845-.06-.405-.09-1.817-.09-4.234 0-1.316.046-2.198.138-2.646.069-.324.167-.54.295-.65a.752.752 0 01.508-.166c.228 0 .399.074.514.22.192.256.3.651.329 1.186zm2.11-.014c0-.927-.13-1.793-.39-2.597-.155-.494-.364-.899-.626-1.214a3.15 3.15 0 00-.895-.75 2.203 2.203 0 00-1.091-.279c-.447 0-.852.115-1.212.343-.362.23-.682.556-.96.981-.202.311-.377.724-.528 1.241a7.985 7.985 0 00-.295 2.166c0 1.01.142 1.937.425 2.783.233.7.587 1.236 1.063 1.608.475.373.977.558 1.507.558.54 0 1.043-.183 1.512-.552.469-.367.813-.862 1.032-1.484.306-.854.459-1.789.459-2.804m1.88-1.144h2.701v3.668zm-.665 0l4.415 5.984h.836v-5.984h.851v-1.419h-.851v-2.084h-1.885v2.084h-3.366zm11.36-.987h-3.996v1.419h3.996zm5.082 2.145c0 1.628-.01 2.575-.027 2.846-.046.634-.156 1.064-.329 1.288-.115.146-.3.22-.556.22-.196 0-.353-.055-.466-.166-.169-.159-.284-.44-.343-.845-.059-.405-.09-1.817-.09-4.234 0-1.316.046-2.198.138-2.646.07-.324.167-.54.295-.65.127-.11.297-.166.507-.166.228 0 .4.074.515.22.191.256.3.651.33 1.186zm2.111-.014c0-.927-.13-1.793-.39-2.597-.156-.494-.365-.899-.628-1.214a3.123 3.123 0 00-.895-.75 2.197 2.197 0 00-1.09-.279c-.448 0-.852.115-1.212.343-.362.23-.682.556-.96.981-.202.311-.377.724-.529 1.241a7.985 7.985 0 00-.295 2.166c0 1.01.142 1.937.426 2.783.233.7.587 1.236 1.063 1.608.475.373.977.558 1.507.558.54 0 1.043-.183 1.512-.552.47-.367.813-.862 1.031-1.484.307-.854.46-1.789.46-2.804m1.881-1.144h2.7v3.668zm-.665 0l4.414 5.984h.837v-5.984h.85v-1.419h-.85v-2.084h-1.887v2.084h-3.365zm-136.137 24.173c.297 0 .549-.104.754-.312.206-.208.309-.458.309-.75s-.104-.542-.312-.748a1.033 1.033 0 00-.751-.308c-.292 0-.542.103-.747.308a1.02 1.02 0 00-.31.748c0 .292.104.542.31.75.205.208.455.312.747.312m.96-3.105v-5.08c0-.453.052-.741.158-.867.105-.126.31-.198.616-.216v-.247h-3.462V368c.284.009.494.09.63.247.093.105.139.383.139.836v3.743c0 .453-.053.742-.158.867-.106.126-.31.198-.611.217v.253zm4.368 0v-.83c.329.356.645.616.946.778.302.163.626.244.973.244.416 0 .762-.115 1.036-.346.274-.231.457-.518.548-.861.073-.26.11-.76.11-1.501v-2.495c0-.494.044-.801.134-.922.088-.121.274-.198.558-.23v-.246h-3.243V368c.243.03.417.132.52.3.075.115.11.399.11.85v2.853c0 .525-.02.857-.06.994a.607.607 0 01-.21.318.517.517 0 01-.325.114c-.393 0-.76-.282-1.097-.843v-3.435c0-.48.044-.784.134-.912.089-.128.254-.208.497-.24v-.246h-3.243V368c.27.027.462.113.576.26.078.1.117.397.117.89v3.62c0 .485-.045.787-.134.906-.09.119-.275.196-.56.233v.253zm9.592.178l.103-2.187h-.233c-.279.65-.569 1.092-.868 1.33-.299.238-.597.356-.894.356a.67.67 0 01-.48-.188.581.581 0 01-.199-.435c0-.124.046-.243.137-.356.146-.188.556-.509 1.227-.964.672-.454 1.114-.84 1.327-1.159.212-.317.318-.672.318-1.066 0-.356-.088-.706-.267-1.049a1.87 1.87 0 00-.754-.788 2.163 2.163 0 00-1.076-.274c-.306 0-.716.096-1.227.288a.99.99 0 01-.28.075c-.152 0-.278-.113-.378-.343h-.227l-.109 2.304h.233c.206-.604.487-1.056.846-1.357.36-.302.698-.453 1.018-.453a.74.74 0 01.538.203c.14.134.21.297.21.49a.845.845 0 01-.206.568c-.137.16-.443.402-.919.728-.699.483-1.152.853-1.357 1.11a1.928 1.928 0 00-.452 1.24c0 .494.17.941.511 1.341.34.4.832.6 1.477.6.347 0 .683-.085 1.007-.254a.666.666 0 01.302-.103.35.35 0 01.2.052c.05.034.13.131.24.291zm4.305 2.166v-2.345h1.523v-.678h-1.522v-3.956c0-.37.017-.609.052-.716a.508.508 0 01.18-.26.411.411 0 01.24-.1c.299 0 .579.227.844.68l.206-.152c-.37-.877-.971-1.316-1.803-1.316-.407 0-.751.113-1.031.34-.282.226-.461.478-.54.757-.044.155-.067.575-.067 1.261v3.462h-.837v.24a8.832 8.832 0 011.47 1.282c.405.448.758.948 1.06 1.501zm4.356-2.159c.315 0 .583-.11.805-.333.222-.222.333-.489.333-.805 0-.315-.111-.584-.333-.805a1.096 1.096 0 00-.805-.333c-.315 0-.584.111-.806.333-.221.221-.332.49-.332.805 0 .316.11.583.332.805.222.223.49.333.806.333m-.007-4.483c.319 0 .59-.113.812-.336.222-.224.333-.493.333-.809 0-.315-.113-.584-.336-.806a1.112 1.112 0 00-.81-.333c-.314 0-.583.112-.804.333a1.098 1.098 0 00-.333.806c0 .316.11.585.333.809.22.223.49.336.805.336m9.736 3.995c-.174 0-.345-.095-.514-.286-.23-.261-.473-.695-.734-1.303-.466-1.093-.7-1.97-.7-2.633 0-.201.043-.356.128-.465.085-.11.177-.166.278-.166.086 0 .212.065.376.193.233.179.483.479.748.905.265.425.482.897.65 1.415.17.519.255.998.255 1.437 0 .315-.06.554-.18.719-.085.123-.188.185-.307.185m1.035.233l1.673.069-1.255-4.305c-.141-.476-.212-.832-.212-1.07a.52.52 0 01.16-.38.533.533 0 01.395-.161c.315 0 .723.18 1.224.545.5.363.914.882 1.24 1.556.327.674.49 1.393.49 2.157 0 1.26-.405 2.296-1.216 3.108-.812.81-1.868 1.217-3.171 1.217-1.124 0-2.146-.264-3.064-.792-.92-.528-1.648-1.294-2.187-2.3a6.743 6.743 0 01-.81-3.235c0-1.581.505-2.876 1.513-3.884 1.007-1.008 2.29-1.512 3.849-1.512 1.284 0 2.436.346 3.455 1.035a5.62 5.62 0 012.166 2.742h.419c-.55-1.343-1.348-2.373-2.396-3.087-1.05-.716-2.268-1.074-3.658-1.074-1.76 0-3.211.569-4.353 1.704s-1.714 2.574-1.714 4.315a6.76 6.76 0 00.85 3.329 5.85 5.85 0 002.386 2.36c1.024.554 2.157.83 3.4.83 1.01 0 1.893-.202 2.65-.606a3.982 3.982 0 001.703-1.703 4.96 4.96 0 00.569-2.318c0-.946-.204-1.81-.613-2.591-.41-.782-.92-1.358-1.53-1.731a3.71 3.71 0 00-1.97-.558c-.452 0-.798.112-1.035.336-.238.223-.356.51-.356.863 0 .247.054.569.164.967-.38-.631-.674-1.067-.884-1.31-.288-.324-.574-.561-.857-.713a1.323 1.323 0 00-.624-.143 1.04 1.04 0 00-.82.386c-.221.259-.332.637-.332 1.135 0 .512.075 1.014.223 1.505a6.24 6.24 0 001.494 2.547c.336.343.714.626 1.135.849.215.12.446.179.693.179.255 0 .466-.08.633-.24.167-.16.28-.44.34-.836zm5.198-8.473h7.28v-.898h-7.28zm10.579 11.429v-6.116l1.487 1.46c.306.298.497.511.573.644a.783.783 0 01.113.384c0 .124-.05.227-.151.31-.1.081-.297.14-.59.177v.253h2.873v-.253a1.602 1.602 0 01-.72-.195c-.206-.117-.607-.468-1.206-1.053l-.7-.685 1.509-2.207c.607-.896.969-1.399 1.083-1.509a.901.901 0 01.589-.26v-.247h-3.311V368c.147 0 .253.028.319.082.066.055.099.114.099.178 0 .105-.095.3-.288.583l-1.268 1.857-.411-.404v-1.15c0-.49.045-.795.137-.916.092-.12.279-.199.562-.23v-.247h-3.311V368c.27.028.462.113.576.26.078.101.117.395.117.885v6.512c0 .485-.045.786-.134.905-.09.12-.276.196-.56.233v.254zm8.603-3.182a.8.8 0 01-.6-.265c-.166-.175-.275-.523-.328-1.042-.052-.517-.078-1.238-.078-2.162 0-.488.03-.945.095-1.37.05-.325.158-.572.323-.741a.764.764 0 01.562-.253c.205 0 .377.057.514.17.178.156.297.374.356.652.092.435.137 1.312.137 2.633 0 .776-.043 1.31-.13 1.6-.086.29-.215.502-.384.634a.719.719 0 01-.466.145m-.027.485c.558 0 1.076-.144 1.556-.43.48-.288.844-.698 1.094-1.228.249-.53.373-1.11.373-1.742 0-.909-.231-1.67-.692-2.282-.558-.74-1.328-1.112-2.311-1.112-.964 0-1.706.34-2.227 1.015-.521.677-.782 1.46-.782 2.352 0 .92.266 1.72.799 2.402.532.684 1.262 1.025 2.19 1.025m6.856 2.696v-7.967c0-.453.052-.74.158-.867.105-.126.311-.198.616-.216v-.247h-3.462V368c.284.01.494.091.631.246.092.106.138.384.138.837v6.636c0 .448-.053.734-.158.86-.106.126-.309.198-.61.216v.254zm4.225-4.141v-2.852c0-.581.014-.951.041-1.111.045-.27.155-.487.329-.654a.92.92 0 01.665-.25c.233 0 .433.065.6.198.167.133.305.396.418.789.112.393.168 1.1.168 2.125 0 .983-.123 1.656-.37 2.023-.179.264-.418.397-.72.397-.394 0-.771-.222-1.131-.665m0 4.14v-3.531c.539.559 1.128.837 1.769.837.438 0 .852-.13 1.24-.387.388-.258.692-.625.912-1.1.22-.476.329-1.024.329-1.646 0-.7-.14-1.334-.418-1.906-.279-.571-.651-1.007-1.118-1.305a2.893 2.893 0 00-1.597-.45 2.44 2.44 0 00-.926.165c-.269.11-.534.288-.795.535l-1.062-.693h-.233v8.152c0 .37-.016.598-.048.685a.527.527 0 01-.216.284c-.099.062-.264.097-.497.107v.254zm9.215-7.849v2.146c-.553-.325-.965-.672-1.234-1.042-.178-.247-.268-.497-.268-.748 0-.21.076-.395.227-.555.114-.123.274-.185.479-.185.23 0 .494.128.796.384m0-.5c-.782-.69-1.483-1.035-2.104-1.035-.367 0-.67.119-.913.359-.242.24-.363.54-.363.902 0 .489.21.928.63 1.32.422.39 1.338.91 2.75 1.559v.644c0 .484-.026.79-.08.916a.733.733 0 01-.297.328.894.894 0 01-.494.14c-.297 0-.541-.065-.733-.197-.12-.082-.178-.18-.178-.29 0-.094.063-.213.19-.355.175-.196.262-.387.262-.57a.761.761 0 00-.25-.572c-.167-.157-.385-.236-.655-.236-.288 0-.53.087-.723.26-.194.175-.292.378-.292.61 0 .329.13.644.39.944.26.298.625.528 1.09.688.467.16.952.24 1.455.24.607 0 1.088-.13 1.442-.387.354-.258.584-.54.689-.84.065-.192.096-.633.096-1.323v-2.49c0-.291.012-.475.034-.551a.346.346 0 01.104-.168.243.243 0 01.157-.054c.119 0 .24.085.363.254l.206-.165c-.228-.338-.465-.583-.71-.737a1.533 1.533 0 00-.833-.23c-.365 0-.651.086-.856.258-.206.17-.332.43-.377.778m7.885 5.641l.103-2.187h-.233c-.28.65-.568 1.092-.867 1.33-.3.238-.598.356-.895.356a.67.67 0 01-.48-.188.58.58 0 01-.198-.435.56.56 0 01.136-.356c.147-.188.556-.509 1.228-.964.67-.454 1.113-.84 1.326-1.159.212-.317.318-.672.318-1.066 0-.356-.088-.706-.267-1.049a1.87 1.87 0 00-.754-.788 2.16 2.16 0 00-1.076-.274c-.306 0-.715.096-1.227.288a.982.982 0 01-.281.075c-.151 0-.276-.113-.377-.343h-.227l-.11 2.304h.234c.206-.604.488-1.056.846-1.357.36-.302.698-.453 1.019-.453.219 0 .398.068.538.203.14.134.209.297.209.49a.845.845 0 01-.206.568c-.137.16-.443.402-.918.728-.7.483-1.153.853-1.358 1.11a1.934 1.934 0 00-.452 1.24c0 .494.17.941.51 1.341.34.4.833.6 1.478.6.347 0 .683-.085 1.007-.254a.666.666 0 01.302-.103c.082 0 .149.017.199.052.05.034.13.131.24.291zm4.382-.178v-.83c.329.356.645.616.945.778.302.163.627.244.974.244.416 0 .76-.115 1.035-.346a1.66 1.66 0 00.549-.861c.072-.26.109-.76.109-1.501v-2.495c0-.494.044-.801.133-.922.09-.121.275-.198.56-.23v-.246h-3.243V368c.243.03.416.132.52.3.074.115.11.399.11.85v2.853c0 .525-.02.857-.061.994a.6.6 0 01-.21.318.52.52 0 01-.324.114c-.394 0-.76-.282-1.097-.843v-3.435c0-.48.044-.784.134-.912.089-.128.254-.208.496-.24v-.246h-3.242V368c.269.027.462.113.576.26.077.1.116.397.116.89v3.62c0 .485-.045.787-.134.906-.09.119-.275.196-.558.233v.253zm7.083 3.105c.296 0 .547-.104.753-.312a1.03 1.03 0 00.308-.75c0-.292-.104-.542-.312-.748a1.03 1.03 0 00-.75-.308c-.293 0-.542.103-.748.308a1.023 1.023 0 00-.308.748c0 .292.103.542.308.75.206.208.455.312.748.312m.96-3.105v-5.08c0-.453.052-.741.157-.867.106-.126.311-.198.617-.216v-.247h-3.462V368c.285.009.495.09.63.247.093.105.139.383.139.836v3.743c0 .453-.053.742-.158.867-.106.126-.31.198-.61.217v.253zm4.69-6.67l-2.07 4.75c-.311.718-.54 1.159-.69 1.324a1.175 1.175 0 01-.537.343v.253h3.407v-.253c-.223-.01-.381-.053-.473-.131a.356.356 0 01-.137-.281c0-.174.114-.517.343-1.028l1.096-2.51.748 1.94c.27.69.404 1.17.404 1.44a.516.516 0 01-.168.405c-.111.1-.31.155-.593.165v.253h2.146v-.253a.808.808 0 01-.514-.244c-.133-.14-.355-.613-.665-1.422l-1.83-4.751c-.462-1.188-.805-1.92-1.03-2.193-.314-.384-.71-.577-1.185-.577-.38 0-.687.109-.922.327a1.027 1.027 0 00-.352.784c0 .265.08.484.243.658a.787.787 0 00.599.26.725.725 0 00.552-.22c.14-.145.212-.371.216-.678.005-.173.025-.285.062-.336a.187.187 0 01.158-.075c.109 0 .226.067.349.199.183.192.398.63.645 1.317zm6.974 9.014v-2.345h1.52v-.678h-1.52v-3.956c0-.37.018-.609.052-.716a.508.508 0 01.18-.26.409.409 0 01.24-.1c.299 0 .58.227.844.68l.205-.152c-.37-.877-.97-1.316-1.802-1.316-.406 0-.75.113-1.031.34-.282.226-.461.478-.54.757-.044.155-.067.575-.067 1.261v3.462h-.837v.24a8.832 8.832 0 011.47 1.282c.405.448.759.948 1.059 1.501zm6.534-2.166l.104-2.187h-.234c-.278.65-.568 1.092-.867 1.33-.3.238-.598.356-.895.356a.668.668 0 01-.48-.188.581.581 0 01-.198-.435c0-.124.046-.243.136-.356.147-.188.556-.509 1.228-.964.672-.454 1.114-.84 1.326-1.159.213-.317.319-.672.319-1.066 0-.356-.09-.706-.267-1.049a1.881 1.881 0 00-.754-.788 2.166 2.166 0 00-1.076-.274c-.307 0-.716.096-1.228.288a.974.974 0 01-.281.075c-.15 0-.276-.113-.377-.343h-.226l-.11 2.304h.234c.205-.604.487-1.056.846-1.357.359-.302.698-.453 1.018-.453.22 0 .398.068.538.203.14.134.209.297.209.49a.85.85 0 01-.205.568c-.138.16-.444.402-.92.728-.698.483-1.151.853-1.357 1.11a1.934 1.934 0 00-.452 1.24c0 .494.17.941.51 1.341.34.4.834.6 1.479.6.346 0 .682-.085 1.007-.254a.663.663 0 01.3-.103.34.34 0 01.2.052c.05.034.13.131.24.291zm5.506-2.694c0 .736-.04 1.24-.12 1.515-.08.274-.204.482-.373.624a.566.566 0 01-.384.124c-.237 0-.432-.117-.583-.35-.27-.407-.404-.965-.404-1.673v-.24zm1.687-.46h-3.517c.04-.85.268-1.521.679-2.015.315-.38.694-.57 1.137-.57.275 0 .524.078.747.23.225.154.464.429.72.827l.234-.151c-.347-.71-.731-1.21-1.152-1.505a2.486 2.486 0 00-1.46-.442c-.951 0-1.671.366-2.16 1.097-.393.59-.59 1.32-.59 2.194 0 1.069.29 1.92.868 2.554.578.633 1.255.949 2.033.949.648 0 1.212-.267 1.689-.8.478-.531.735-1.321.772-2.367m3.772 5.862v-3.71c.352.37.674.632.966.785.293.153.596.23.912.23a1.6 1.6 0 001.03-.343c.287-.229.477-.497.57-.806.094-.308.14-.828.14-1.559v-2.502c0-.49.047-.794.138-.915.092-.12.277-.199.556-.23v-.247h-3.25V368c.229.031.4.123.514.274.082.12.123.41.123.871v2.858c0 .53-.02.863-.061.998a.613.613 0 01-.21.315.53.53 0 01-.331.113.9.9 0 01-.535-.189c-.174-.126-.361-.345-.562-.66v-3.435c0-.457.034-.743.103-.858.086-.155.264-.25.534-.287v-.247h-3.25V368c.27.028.463.113.577.26.077.101.116.395.116.885v6.512c0 .485-.045.786-.134.905-.09.12-.275.196-.558.233v.254zm4.936-11.429h7.28v-.898h-7.28zm-129.982 61.236c-1.923 0-2.884.733-2.884 2.2.01.9.314 2.398.908 4.493.595 2.095.898 3.62.909 4.576 0 1.545-.683 2.317-2.05 2.317-.3 0-.673-.044-1.117-.133l-2.734-12.87h-4.918l4.95 23.223c-1.51-.645-2.686-1.595-3.525-2.851-.84-1.256-1.258-2.801-1.258-4.635 0-.9.138-1.594.416-2.083a.532.532 0 00.067-.234c-1.845 0-2.984.584-3.417 1.75-.156.423-.234.945-.234 1.568 0 1.144.36 2.245 1.084 3.3 1.456 2.168 3.656 3.774 6.6 4.818 1.413.5 2.84.75 4.286.75.466 0 .922-.022 1.367-.066l-2.184-10.203a23.794 23.794 0 003.017 5.852c1.3 1.856 2.443 3.056 3.426 3.6.983.545 1.859.817 2.625.817.768 0 1.329-.144 1.685-.433.622-.5.933-1.045.933-1.633 0-.968-.22-1.645-.66-2.035a2.276 2.276 0 00-1.557-.583c-.978 0-1.651.456-2.017 1.367-2.156-1.278-4.118-3.873-5.885-7.785.278.022.533.033.767.033h.667c2.278 0 3.623-.733 4.034-2.201.133-.444.2-.972.2-1.583 0-.922-.278-2.395-.834-4.418-.555-2.022-.833-3.34-.833-3.951 0-1.256.444-2.05 1.333-2.384-1.422-.39-2.478-.583-3.167-.583m15.537 6.368c.878 1.978 1.317 4.229 1.317 6.751 0 .957-.092 1.657-.275 2.101-.184.444-.56.667-1.125.667-1.08 0-2.095-1.153-3.051-3.459-.956-2.307-1.434-4.354-1.434-6.143 0-1.101.1-1.798.3-2.093.2-.294.412-.48.634-.558.222-.078.539-.117.95-.117.41 0 .864.256 1.359.767.494.511.936 1.206 1.325 2.084m26.14.333c-1.434-4.212-3.551-6.318-6.352-6.318-1.3 0-2.298.347-2.993 1.042-.694.694-1.041 1.506-1.041 2.434 0 .928.25 2.52.75 4.776l1.5 6.769c-1.145 0-2.014-.478-2.608-1.434-.595-.956-1.098-2.39-1.51-4.301a133.011 133.011 0 00-1.016-4.443c-.267-1.05-.595-1.931-.984-2.642-.79-1.467-2.051-2.201-3.784-2.201-1.056 0-1.873.261-2.451.784a3.8 3.8 0 00-1.133 1.867c-1.89-1.145-4.062-1.939-6.518-2.384-.768-.134-1.523-.2-2.268-.2-1.656 0-2.967.428-3.934 1.284-.967.855-1.45 2.136-1.45 3.842s.216 3.22.65 4.543c1.745 5.223 4.646 7.835 8.702 7.835 2.923 0 4.384-1.817 4.384-5.451 0-3.924-.983-7.08-2.951-9.469 1.267.411 2.34.889 3.218 1.434.045.766.25 1.375.617 1.825.366.45.842.675 1.425.675.584 0 1.037-.164 1.359-.492.322-.328.483-.767.483-1.316 0-.551-.136-.957-.408-1.218a1.104 1.104 0 00-.942-.324c.01-.234.103-.473.275-.718.172-.244.528-.366 1.067-.366.539 0 .986.183 1.342.55.622.656 1.1 1.85 1.433 3.584l.518 2.517c.978 4.757 2.46 7.469 4.45 8.136a6.32 6.32 0 002.1.333h5.019l-1.8-8.469-.601-2.634c-.144-.655-.216-1.133-.216-1.433 0-.956.455-1.434 1.366-1.434.689 0 1.24.264 1.65.792.412.528.818 1.269 1.218 2.225z"/><path d="M281.75 430.891c.278-.345.703-.517 1.275-.517.573 0 1.061.181 1.467.542.406.361.764.825 1.075 1.392.556 1.034.97 2.267 1.243 3.701.272 1.434.408 2.562.408 3.384 0 .823-.112 1.381-.334 1.675-.222.295-.575.442-1.058.442-.484 0-.945-.172-1.384-.516a5.328 5.328 0 01-1.175-1.317c-.611-.978-1.086-2.154-1.426-3.526-.339-1.373-.508-2.507-.508-3.401 0-.895.139-1.514.417-1.859m5.118 16.42c-.289 0-.434-.138-.434-.416 0-.133.189-.417.567-.85 2.034-2.379 3.051-4.918 3.051-7.619 0-2.701-.722-5.157-2.167-7.368a9.601 9.601 0 00-2.584-2.684c-1.023-.712-2.073-1.067-3.151-1.067-1.979 0-3.44.472-4.384 1.417-.945.944-1.417 2.395-1.417 4.351 0 2.734.8 5.129 2.4 7.185 1.778 2.223 4.084 3.334 6.918 3.334.123 0 .228-.006.317-.016.089-.012.178-.017.267-.017-.456.544-.928 1.05-1.417 1.517-.489.466-.939.922-1.351 1.367-.933 1.022-1.4 1.981-1.4 2.875 0 .895.297 1.545.892 1.951.595.406 1.531.608 2.809.608h6.702c.789 0 1.306.212 1.55.634.145.222.272.561.383 1.017h1.501c-.545-2.59-1.195-4.285-1.951-5.085a3.275 3.275 0 00-1.567-.9c-.611-.155-1.361-.234-2.25-.234zm15.404-6.051c0 .211-.098.48-.292.81-.194.326-.608.49-1.242.49-.633 0-1.25-.339-1.85-1.017-1.445-1.633-2.351-3.978-2.718-7.034a12.702 12.702 0 01-.084-1.484c0-1.012.211-1.717.634-2.118.244-.244.55-.366.916-.366.678 0 1.295.27 1.851.808.555.54.94 1.276 1.15 2.21zm8.602-7.702c-1.446-4.212-3.73-6.318-6.853-6.318-2.012 0-3.128 1.045-3.35 3.134-1.49-2.089-3.225-3.134-5.21-3.134-1.984 0-3.332.973-4.043 2.917-.255.701-.383 1.498-.383 2.393 0 .894.078 1.79.233 2.684.157.894.396 1.786.718 2.675.71 1.956 1.728 3.573 3.05 4.851 1.322 1.278 2.917 1.917 4.784 1.917.978 0 1.684-.164 2.117-.49.434-.329.65-.743.65-1.243v-.25l.368 1.817h4.918l-2.452-11.603a4.472 4.472 0 01-.149-1.1c0-.978.467-1.467 1.4-1.467 1.211 0 2.134 1.072 2.767 3.217z"/><path d="M317.875 444.81c2.734 0 4.101-1.033 4.101-3.1 0-.866-.178-1.503-.534-1.908-.355-.406-.755-.61-1.2-.61a2.33 2.33 0 00-1.283.4c.277.735.416 1.407.416 2.018 0 .934-.324 1.4-.975 1.4-.65 0-1.337-.588-2.058-1.766-1.034-1.667-1.745-3.74-2.134-6.22a16.66 16.66 0 01-.167-2.45c0-1.644.783-2.467 2.351-2.467 1.311 0 2.414.292 3.308.876.895.583 1.843 1.442 2.843 2.576h1.167c-2.557-4.213-5.685-6.32-9.386-6.32-1.623 0-2.917.42-3.884 1.26-.967.839-1.451 2.226-1.451 4.159 0 2.612.662 5.135 1.985 7.569 1 1.834 2.373 3.15 4.117 3.95.9.423 1.828.634 2.784.634"/><path d="M330.911 430.858c0 .778.262 2.373.784 4.784h-3.784l-1.75-8.201h-4.919l3.618 17.07h4.918l-1.468-6.835h3.82l1.55 6.835h4.567l-1.8-8.468-.6-2.635c-.157-.655-.235-1.133-.235-1.433 0-.956.456-1.434 1.367-1.434.69 0 1.24.267 1.651.8.411.523.817 1.262 1.217 2.218h1.433c-1.433-4.213-3.55-6.32-6.35-6.32-1.312 0-2.307.346-2.985 1.035-.689.7-1.034 1.562-1.034 2.584"/><path d="M363.636 433.558c-1.434-4.212-3.534-6.318-6.301-6.318-1.311 0-2.312.35-3.001 1.05-.69.7-1.034 1.517-1.034 2.451 0 .923.268 2.585.8 4.985l1.084 4.85-3.834-2.217c.545-.843.817-2.061.817-3.65 0-1.578-.606-3.145-1.817-4.701-1.423-1.845-3.362-2.767-5.818-2.767-1.567 0-2.773.383-3.618 1.15-.844.766-1.267 1.838-1.267 3.216 0 .612.078 1.262.233 1.951l2.25 10.953h4.719l-2.534-12.02c-.067-.2-.1-.517-.1-.95 0-.934.494-1.4 1.484-1.4.989 0 1.85.555 2.583 1.667.746 1.122 1.118 2.456 1.118 4 0 .567-.167 1-.5 1.301a1.47 1.47 0 00-.943-.317 1.93 1.93 0 00-1.058.333c-.333.234-.5.615-.5 1.142 0 .528.206.92.617 1.176.41.255.858.383 1.342.383.483 0 .936-.067 1.358-.2.845.378 1.623.761 2.334 1.15l4.168 2.451c.7.422 1.456.85 2.267 1.284h2.117l-1.8-8.469-.617-2.634c-.145-.656-.217-1.134-.217-1.434 0-.956.456-1.434 1.367-1.434.69 0 1.239.267 1.65.801.412.522.817 1.261 1.217 2.217z"/><path d="M368.904 451.613c1.422 0 2.134-.65 2.134-1.951 0-.666-.273-1.177-.818-1.533.356-.09.812-.134 1.368-.134 2.478 0 4.234 1.334 5.267 4h1.434c-1.067-3.122-2.717-4.972-4.95-5.55-.712-.178-1.618-.267-2.718-.267-1.1 0-2.039.264-2.818.792-.778.528-1.167 1.2-1.167 2.018 0 .816.206 1.458.618 1.925.411.467.961.7 1.65.7m-2.018-19.571c0-1.001.34-1.501 1.017-1.501 1.2 0 2.112 1.006 2.734 3.018l2.318 10.952h4.918l-2.45-11.603a4.8 4.8 0 01-.15-1.2c0-.778.466-1.167 1.4-1.167.244 0 .622.072 1.132.217-.077-1.234-.497-2.128-1.257-2.684a4.238 4.238 0 00-2.56-.834c-.944 0-1.706.28-2.283.842-.578.562-.923 1.359-1.034 2.393-1.334-2.156-3.029-3.235-5.084-3.235-1.023 0-1.89.323-2.6.967-.7.645-1.052 1.684-1.052 3.118 0 .644.09 1.389.267 2.234l2.317 10.952h4.918l-2.45-11.603a3.876 3.876 0 01-.1-.866m-82.703-37.925c1.223 0 2.7-.355 4.435-1.066l5.15 24.105h4.918l-5.601-26.123c1.334-.544 2.526-.816 3.576-.816 1.05 0 1.93.194 2.642.583-.144-1.634-.538-2.862-1.183-3.684-.645-.823-1.653-1.234-3.026-1.234-1.372 0-2.76.495-4.16 1.484-.588.422-1.183.883-1.783 1.384-2.29 1.91-4.845 2.867-7.67 2.867-1.4 0-2.432-.067-3.1-.2v.033c0 .022.012.045.034.066l4.95 23.289c-1.5-.622-2.672-1.558-3.516-2.808-.845-1.251-1.267-2.798-1.267-4.643 0-.9.139-1.595.416-2.084a.532.532 0 00.067-.233c-1.845 0-2.984.583-3.417 1.75-.156.423-.234.944-.234 1.567 0 1.145.362 2.245 1.084 3.3 1.456 2.168 3.656 3.774 6.602 4.818 1.41.5 2.839.75 4.284.75.466 0 .923-.021 1.367-.066l-4.884-23.04z"/><path d="M308.522 405.954c0 .822-.283 1.233-.85 1.233-.81 0-1.62-.742-2.425-2.225a16.648 16.648 0 01-1.709-4.81c1.311.044 2.47.636 3.475 1.776 1.006 1.138 1.51 2.48 1.51 4.026m11.37 3.033c0 1.078.678 1.617 2.033 1.617.667 0 1.2-.294 1.6-.882.4-.59.6-1.223.6-1.902 0-1.211-.37-2.44-1.108-3.683-.738-1.246-1.997-2.824-3.775-4.735l.3-1.667c.189-1.045.408-1.808.658-2.293.25-.483.748-.724 1.492-.724.378 0 .745.072 1.1.216-.078-1.144-.477-2.017-1.2-2.617-.722-.6-1.603-.9-2.642-.9-1.04 0-1.856.369-2.45 1.108-.595.74-1.082 1.949-1.46 3.626-2.178-2.222-4.806-3.69-7.884-4.401a12.668 12.668 0 00-2.801-.333c-1.89 0-3.393.44-4.51 1.325-1.116.884-1.675 2.298-1.675 4.243 0 2.5.66 4.968 1.984 7.402 1.012 1.855 2.389 3.178 4.134 3.967.9.422 1.834.633 2.8.633 1.579 0 2.652-.298 3.218-.892.567-.595.85-1.387.85-2.375 0-1.956-.78-3.613-2.342-4.969-1.562-1.356-3.41-2.1-5.543-2.234a2.493 2.493 0 01-.05-.483v-.45c0-1.267.333-2.145 1-2.634.667-.489 1.39-.733 2.167-.733 1.489 0 2.965.344 4.427 1.033a12.348 12.348 0 013.858 2.85l-1.95 10.586h4.819l1.316-7.367c2.167 2.312 3.25 4.117 3.25 5.418 0 .167-.01.306-.032.417a2.67 2.67 0 00-.617-.067c-1.044 0-1.567.634-1.567 1.9m-69.566 98.535s-6.38 9.109-8.222 7.375c0 0-.153-3.196 3.53-7.234 0 0-5.286-1.567-6.63-4.082-1.345-2.516 7.813-2.877 12.444.373zm90.803 32.196s-.04 11.316 2.422 11.08c0 0 1.933-2.47 1.266-8.022 0 0 5.13 2.059 7.635.883 2.505-1.175-4.641-7.212-10.2-7.51z"/><path d="M339.155 543.527c-2.373 1.04-5.05.57-7.155-.928a134.212 134.212 0 00-10.522-6.76l3.205-7.48c.474-1.103.032-2.408-.982-2.897-1.014-.49-2.23.013-2.703 1.117l-3.107 7.248a140.414 140.414 0 00-8.106-4.053l3.143-7.337c.474-1.105.032-2.41-.982-2.9-1.014-.49-2.23.014-2.703 1.118l-3.196 7.46a145.825 145.825 0 00-9.645-3.713l2.362-7.515c.362-1.15-.209-2.393-1.267-2.761-1.059-.37-2.22.27-2.583 1.422l-2.383 7.58a144 144 0 00-9.792-2.7l1.091-8.35c.157-1.2-.622-2.3-1.729-2.446-1.108-.146-2.142.715-2.299 1.915l-1.045 7.999a117.644 117.644 0 00-8.438-1.435l.94-7.201c.157-1.2-.62-2.3-1.729-2.446-1.107-.146-2.142.715-2.298 1.914l-.955 7.312c-14.577-.962-15.089-3.452-15.089-3.452-4.819-7.314-1.486-13.064 1.876-16.453a13.1 13.1 0 019.617-3.894c10.948.255 32.001 5.9 54.936 15.207 27.478 11.15 26.533 19.484 26.533 19.484 1.013 9.907-1.989 13.627-4.995 14.945"/><path d="M271.226 551.584s12.447.595 12.977-11.657c.528-12.25.694-13.068 2.27-15.154 0 0-7.748 1.315-6.83 10.238.92 8.924 1.753 13.893-8.417 16.573m22.844-22.179s-2.97 2.779-1.19 11.52c.729 3.578.576 6.446.142 8.584-.568 2.799-2.212 5.26-4.525 6.935-1.776 1.284-4.251 2.683-6.861 2.936 0 0 1.718-.613 3.583-1.988 3.409-2.514 4.973-6.825 4.11-10.972-.33-1.586-.986-3.48-1.563-5.237-1.214-3.698.2-10.49 6.305-11.778m-.72 27.597s6.211-2.082 6.191-8.05c-.005-1.388-.429-2.735-1.099-3.949-1.07-1.938-2.99-5.924-2.455-8.774.731-3.897 4.78-6.64 4.78-6.64s-2.158 4.034.458 10.077c2.618 6.042 4.64 13.847-7.875 17.336m15.207-86.058c-2.591 3.235-5.234 4.149-6.59 4.407-.936.178-1.851.495-2.616 1.064-4.493 3.339-7.27 11.666-7.27 11.666l-6.044 17.26 3.953 1.29 4.332-12.271c.4-1.246 1.446-2.056 2.65-2.567 1.574-.667 2.973.29 3.774 1.17 1.207 1.322.54 3.054-.023 4.753l-3.734 11.268 4.353 1.36 5.095-12.718c.689-1.107 1.267-2.043 1.933-2.325 1.212-.515 2.416.406 2.993 1.229.844 1.206.36 2.724-.047 4.139l-3.503 12.134 3.887 1.273 6.43-18.226s4.594-9.835-.064-13.974c-2.562-2.277-2.596-5.655-2.108-8.233.338-1.785 1.034-3.484 1.944-5.056l6.468-11.176-9.47-3.741-3.345 11.363c-.63 2.138-1.606 4.172-2.998 5.91"/></g></svg>