<?xml version="1.0" encoding="UTF-8" standalone="no"?>
<svg
   xmlns:dc="http://purl.org/dc/elements/1.1/"
   xmlns:cc="http://creativecommons.org/ns#"
   xmlns:rdf="http://www.w3.org/1999/02/22-rdf-syntax-ns#"
   xmlns:svg="http://www.w3.org/2000/svg"
   xmlns="http://www.w3.org/2000/svg"
   xmlns:sodipodi="http://sodipodi.sourceforge.net/DTD/sodipodi-0.dtd"
   xmlns:inkscape="http://www.inkscape.org/namespaces/inkscape"
   version="1.1"
   id="svg2"
   xml:space="preserve"
   width="793.70667"
   height="1122.52"
   viewBox="0 0 793.70667 1122.52"
   sodipodi:docname="КолбасныйЦех.ai"><metadata
     id="metadata8"><rdf:RDF><cc:Work
         rdf:about=""><dc:format>image/svg+xml</dc:format><dc:type
           rdf:resource="http://purl.org/dc/dcmitype/StillImage" /></cc:Work></rdf:RDF></metadata><defs
     id="defs6"><clipPath
       clipPathUnits="userSpaceOnUse"
       id="clipPath18"><path
         d="M 0,841.89 H 595.28 V 0 H 0 Z"
         id="path16" /></clipPath></defs><sodipodi:namedview
     pagecolor="#ffffff"
     bordercolor="#666666"
     borderopacity="1"
     objecttolerance="10"
     gridtolerance="10"
     guidetolerance="10"
     inkscape:pageopacity="0"
     inkscape:pageshadow="2"
     inkscape:window-width="640"
     inkscape:window-height="480"
     id="namedview4" /><g
     id="g10"
     inkscape:groupmode="layer"
     inkscape:label="КолбасныйЦех"
     transform="matrix(1.3333333,0,0,-1.3333333,0,1122.52)"><g
       id="g12"><g
         id="g14"
         clip-path="url(#clipPath18)"><g
           id="g20"
           transform="translate(230.6343,349.5922)"><path
             d="m 0,0 v 0.254 c 0.274,0 0.463,0.07 0.565,0.212 C 0.668,0.607 0.72,0.889 0.72,1.31 V 5.978 H 0.082 c -0.448,0 -0.758,-0.081 -0.932,-0.241 -0.174,-0.159 -0.311,-0.493 -0.411,-1 H -1.515 V 6.409 H 4.874 V 4.737 H 4.621 C 4.538,5.193 4.417,5.515 4.257,5.7 4.097,5.885 3.775,5.978 3.291,5.978 H 2.639 V 1.31 C 2.639,0.875 2.69,0.592 2.793,0.459 2.896,0.326 3.085,0.258 3.359,0.254 V 0 Z"
             style="fill:#231200;fill-opacity:1;fill-rule:nonzero;stroke:none"
             id="path22" /></g><g
           id="g24"
           transform="translate(240.3291,353.4857)"><path
             d="M 0,0 C 0,0.736 -0.04,1.241 -0.12,1.516 -0.2,1.789 -0.325,1.997 -0.494,2.139 -0.589,2.222 -0.717,2.263 -0.877,2.263 -1.115,2.263 -1.31,2.146 -1.46,1.913 -1.73,1.506 -1.865,0.948 -1.865,0.24 V 0 Z m 1.687,-0.459 h -3.518 c 0.042,-0.851 0.268,-1.522 0.679,-2.016 0.316,-0.379 0.695,-0.569 1.138,-0.569 0.274,0 0.524,0.077 0.747,0.231 0.224,0.152 0.464,0.427 0.72,0.825 l 0.234,-0.151 c -0.348,-0.709 -0.732,-1.21 -1.152,-1.505 -0.421,-0.294 -0.908,-0.442 -1.46,-0.442 -0.951,0 -1.671,0.366 -2.16,1.098 -0.393,0.589 -0.589,1.32 -0.589,2.193 0,1.069 0.288,1.92 0.867,2.554 0.578,0.633 1.255,0.949 2.032,0.949 0.649,0 1.212,-0.267 1.69,-0.799 0.478,-0.532 0.734,-1.322 0.772,-2.368"
             style="fill:#231200;fill-opacity:1;fill-rule:nonzero;stroke:none"
             id="path26" /></g><g
           id="g28"
           transform="translate(246.6646,349.5922)"><path
             d="m 0,0 v 0.254 c 0.229,0.004 0.417,0.06 0.566,0.168 0.148,0.106 0.223,0.349 0.223,0.723 v 4.833 h -1.81 V 3.174 c 0,-1.01 -0.051,-1.707 -0.151,-2.091 -0.1,-0.384 -0.295,-0.679 -0.583,-0.885 -0.287,-0.205 -0.594,-0.307 -0.918,-0.307 -0.366,0 -0.66,0.11 -0.881,0.332 -0.222,0.221 -0.333,0.476 -0.333,0.764 0,0.279 0.082,0.506 0.243,0.682 0.163,0.176 0.372,0.265 0.628,0.265 0.489,0 0.733,-0.298 0.733,-0.892 0,-0.27 0.053,-0.404 0.158,-0.404 0.201,0 0.356,0.167 0.466,0.5 0.11,0.334 0.165,1.012 0.165,2.036 v 1.864 c 0,0.421 -0.057,0.709 -0.172,0.864 -0.114,0.156 -0.311,0.241 -0.589,0.254 V 6.409 H 3.394 V 6.156 C 2.937,6.146 2.708,5.858 2.708,5.292 V 1.172 C 2.708,0.856 2.756,0.627 2.852,0.483 2.948,0.339 3.129,0.263 3.394,0.254 V 0 Z"
             style="fill:#231200;fill-opacity:1;fill-rule:nonzero;stroke:none"
             id="path30" /></g><g
           id="g32"
           transform="translate(253.2676,356.1869)"><path
             d="M 0,0 C 0.315,0 0.583,-0.11 0.805,-0.333 1.027,-0.555 1.138,-0.822 1.138,-1.138 1.138,-1.453 1.027,-1.722 0.805,-1.943 0.583,-2.165 0.315,-2.276 0,-2.276 c -0.315,0 -0.584,0.111 -0.806,0.333 -0.221,0.221 -0.332,0.49 -0.332,0.805 0,0.316 0.111,0.583 0.332,0.805 C -0.584,-0.11 -0.315,0 0,0 m -0.007,-4.483 c 0.319,0 0.59,-0.113 0.812,-0.336 0.222,-0.224 0.333,-0.493 0.333,-0.809 0,-0.315 -0.112,-0.584 -0.336,-0.806 -0.224,-0.221 -0.494,-0.333 -0.809,-0.333 -0.315,0 -0.584,0.112 -0.805,0.333 -0.222,0.222 -0.333,0.491 -0.333,0.806 0,0.316 0.111,0.585 0.333,0.809 0.221,0.223 0.49,0.336 0.805,0.336"
             style="fill:#231200;fill-opacity:1;fill-rule:nonzero;stroke:none"
             id="path34" /></g><g
           id="g36"
           transform="translate(260.0845,354.6927)"><path
             d="M 0,0 H 3.297 V 3.29 H 4.195 V 0 H 7.493 V -0.905 H 4.195 V -4.168 H 3.297 v 3.263 l -3.297,0 z"
             style="fill:#231200;fill-opacity:1;fill-rule:nonzero;stroke:none"
             id="path38" /></g><g
           id="g40"
           transform="translate(270.6499,349.3998)"><path
             d="M 0,0 2.53,7.672 H 0.603 c -0.754,0 -1.32,-0.099 -1.7,-0.295 C -1.362,7.239 -1.581,6.981 -1.755,6.602 h -0.261 l 0.672,2.886 H 4.195 L 1.076,0 Z"
             style="fill:#231200;fill-opacity:1;fill-rule:nonzero;stroke:none"
             id="path42" /></g><g
           id="g44"
           transform="translate(283.9038,359.1)"><path
             d="M 0,0 V -0.315 C -0.476,-0.626 -0.825,-0.93 -1.049,-1.227 -1.36,-1.638 -1.602,-2.166 -1.776,-2.811 -1.995,-3.61 -2.105,-4.728 -2.105,-6.162 c 0,-1.354 0.1,-2.404 0.298,-3.154 0.199,-0.749 0.47,-1.355 0.813,-1.817 0.237,-0.319 0.569,-0.6 0.994,-0.843 v -0.342 c -1.102,0.37 -2.035,1.125 -2.801,2.265 -0.765,1.141 -1.148,2.45 -1.148,3.932 0,1.462 0.382,2.757 1.145,3.883 C -2.041,-1.111 -1.106,-0.365 0,0"
             style="fill:#231200;fill-opacity:1;fill-rule:nonzero;stroke:none"
             id="path46" /></g><g
           id="g48"
           transform="translate(288.7861,353.9105)"><path
             d="m 0,0 c 0.045,0.512 0.068,0.963 0.068,1.351 0,0.832 -0.095,1.606 -0.288,2.324 -0.109,0.397 -0.271,0.689 -0.486,0.878 -0.114,0.099 -0.263,0.15 -0.446,0.15 -0.228,0 -0.407,-0.099 -0.535,-0.295 -0.178,-0.269 -0.267,-0.784 -0.267,-1.542 0,-1.265 0.151,-2.139 0.453,-2.619 0.196,-0.31 0.461,-0.466 0.795,-0.466 0.178,0 0.414,0.073 0.706,0.219 m -3.935,-4.511 v 0.193 c 0.758,0.173 1.402,0.429 1.93,0.767 0.527,0.339 0.946,0.757 1.254,1.255 0.309,0.498 0.524,1.071 0.648,1.721 -0.284,-0.147 -0.524,-0.248 -0.723,-0.306 -0.199,-0.056 -0.408,-0.085 -0.628,-0.085 -0.703,0 -1.289,0.253 -1.758,0.761 -0.469,0.507 -0.703,1.202 -0.703,2.084 0,0.612 0.127,1.173 0.381,1.683 0.254,0.509 0.616,0.905 1.087,1.186 0.47,0.28 0.959,0.421 1.467,0.421 0.543,0 1.058,-0.155 1.542,-0.466 C 1.046,4.393 1.433,3.942 1.721,3.353 2.008,2.763 2.152,2.091 2.152,1.337 2.152,0.359 1.918,-0.578 1.45,-1.474 0.981,-2.369 0.283,-3.088 -0.645,-3.63 -1.572,-4.171 -2.669,-4.465 -3.935,-4.511"
             style="fill:#231200;fill-opacity:1;fill-rule:nonzero;stroke:none"
             id="path50" /></g><g
           id="g52"
           transform="translate(296.3623,359.0795)"><path
             d="m 0,0 v -7.603 c 0,-0.571 0.025,-0.935 0.076,-1.092 0.05,-0.159 0.155,-0.287 0.315,-0.388 0.16,-0.101 0.416,-0.15 0.768,-0.15 h 0.212 v -0.254 h -4.894 v 0.254 h 0.247 c 0.397,0 0.68,0.045 0.849,0.136 0.169,0.092 0.284,0.217 0.343,0.377 0.06,0.16 0.089,0.532 0.089,1.117 v 4.82 c 0,0.429 -0.02,0.698 -0.061,0.805 -0.042,0.108 -0.118,0.2 -0.23,0.275 -0.112,0.075 -0.241,0.113 -0.387,0.113 -0.233,0 -0.517,-0.073 -0.85,-0.22 L -3.647,-1.562 -0.226,0 Z"
             style="fill:#231200;fill-opacity:1;fill-rule:nonzero;stroke:none"
             id="path54" /></g><g
           id="g56"
           transform="translate(302.959,359.0795)"><path
             d="m 0,0 v -7.603 c 0,-0.571 0.024,-0.935 0.075,-1.092 0.051,-0.159 0.155,-0.287 0.316,-0.388 0.16,-0.101 0.416,-0.15 0.767,-0.15 h 0.213 v -0.254 h -4.894 v 0.254 h 0.246 c 0.397,0 0.681,0.045 0.85,0.136 0.169,0.092 0.283,0.217 0.343,0.377 0.059,0.16 0.089,0.532 0.089,1.117 v 4.82 c 0,0.429 -0.021,0.698 -0.062,0.805 -0.041,0.108 -0.118,0.2 -0.229,0.275 -0.112,0.075 -0.241,0.113 -0.388,0.113 -0.233,0 -0.516,-0.073 -0.849,-0.22 L -3.647,-1.562 -0.227,0 Z"
             style="fill:#231200;fill-opacity:1;fill-rule:nonzero;stroke:none"
             id="path58" /></g><g
           id="g60"
           transform="translate(305.9287,346.7816)"><path
             d="m 0,0 v 0.315 c 0.476,0.316 0.825,0.622 1.049,0.918 0.305,0.413 0.548,0.938 0.726,1.578 0.22,0.804 0.329,1.923 0.329,3.359 0,1.352 -0.099,2.402 -0.297,3.149 -0.2,0.747 -0.47,1.352 -0.813,1.814 -0.237,0.319 -0.569,0.6 -0.994,0.843 v 0.342 C 1.102,11.948 2.035,11.193 2.8,10.053 3.565,8.913 3.948,7.603 3.948,6.121 3.948,4.664 3.565,3.372 2.8,2.245 2.035,1.118 1.102,0.37 0,0"
             style="fill:#231200;fill-opacity:1;fill-rule:nonzero;stroke:none"
             id="path62" /></g><g
           id="g64"
           transform="translate(319.2168,359.0795)"><path
             d="m 0,0 v -7.603 c 0,-0.571 0.024,-0.935 0.075,-1.092 0.051,-0.159 0.155,-0.287 0.316,-0.388 0.16,-0.101 0.416,-0.15 0.767,-0.15 h 0.213 v -0.254 h -4.894 v 0.254 h 0.246 c 0.397,0 0.681,0.045 0.85,0.136 0.169,0.092 0.283,0.217 0.343,0.377 0.059,0.16 0.089,0.532 0.089,1.117 v 4.82 c 0,0.429 -0.021,0.698 -0.062,0.805 -0.041,0.108 -0.118,0.2 -0.229,0.275 -0.112,0.075 -0.241,0.113 -0.388,0.113 -0.233,0 -0.516,-0.073 -0.849,-0.22 L -3.647,-1.562 -0.227,0 Z"
             style="fill:#231200;fill-opacity:1;fill-rule:nonzero;stroke:none"
             id="path66" /></g><g
           id="g68"
           transform="translate(324.0918,354.2533)"><path
             d="m 0,0 v 0.24 c 0.521,0.152 0.882,0.291 1.083,0.422 0.201,0.13 0.375,0.329 0.521,0.597 0.147,0.266 0.22,0.538 0.22,0.811 0,0.38 -0.138,0.705 -0.415,0.978 -0.276,0.271 -0.62,0.407 -1.032,0.407 -0.64,0 -1.184,-0.338 -1.631,-1.015 l -0.254,0.09 c 0.329,0.763 0.751,1.337 1.265,1.721 0.514,0.384 1.087,0.575 1.718,0.575 0.643,0 1.174,-0.196 1.593,-0.589 C 3.486,3.844 3.695,3.385 3.695,2.859 3.695,2.517 3.599,2.187 3.404,1.868 3.21,1.551 2.904,1.271 2.488,1.028 3.023,0.769 3.432,0.447 3.712,0.065 3.993,-0.316 4.134,-0.795 4.134,-1.371 4.134,-2.34 3.783,-3.163 3.082,-3.842 2.38,-4.521 1.439,-4.86 0.261,-4.86 c -0.786,0 -1.36,0.131 -1.721,0.39 -0.261,0.184 -0.391,0.419 -0.391,0.707 0,0.21 0.076,0.39 0.227,0.538 0.15,0.148 0.324,0.223 0.52,0.223 0.152,0 0.292,-0.032 0.425,-0.097 0.074,-0.036 0.333,-0.236 0.779,-0.599 0.445,-0.364 0.863,-0.545 1.251,-0.545 0.338,0 0.628,0.134 0.871,0.401 0.242,0.268 0.363,0.607 0.363,1.018 0,0.627 -0.22,1.203 -0.658,1.731 C 1.488,-0.565 0.846,-0.201 0,0"
             style="fill:#231200;fill-opacity:1;fill-rule:nonzero;stroke:none"
             id="path70" /></g><g
           id="g72"
           transform="translate(333.7803,354.2533)"><path
             d="m 0,0 c 0,1.628 -0.01,2.575 -0.027,2.846 -0.046,0.634 -0.156,1.064 -0.329,1.288 -0.115,0.146 -0.3,0.22 -0.556,0.22 -0.196,0 -0.352,-0.055 -0.466,-0.166 C -1.547,4.029 -1.662,3.747 -1.721,3.343 -1.78,2.938 -1.81,1.526 -1.81,-0.891 c 0,-1.316 0.045,-2.198 0.137,-2.646 0.069,-0.324 0.167,-0.541 0.295,-0.651 0.128,-0.11 0.297,-0.165 0.507,-0.165 0.228,0 0.4,0.074 0.515,0.219 0.191,0.257 0.301,0.652 0.329,1.187 z M 2.111,-0.014 C 2.111,-0.941 1.98,-1.807 1.721,-2.611 1.565,-3.105 1.356,-3.51 1.093,-3.825 0.83,-4.141 0.532,-4.391 0.198,-4.575 c -0.333,-0.186 -0.696,-0.279 -1.09,-0.279 -0.448,0 -0.852,0.115 -1.212,0.343 -0.362,0.23 -0.682,0.556 -0.96,0.981 -0.202,0.311 -0.377,0.724 -0.529,1.241 -0.196,0.699 -0.294,1.421 -0.294,2.166 0,1.01 0.141,1.937 0.425,2.783 0.233,0.699 0.587,1.236 1.063,1.608 0.475,0.373 0.977,0.558 1.507,0.558 0.539,0 1.043,-0.183 1.512,-0.552 C 1.089,3.907 1.433,3.412 1.652,2.79 1.958,1.936 2.111,1.001 2.111,-0.014"
             style="fill:#231200;fill-opacity:1;fill-rule:nonzero;stroke:none"
             id="path74" /></g><path
           d="M 341.096,352.108 H 337.1 v 1.419 h 3.996 z"
           style="fill:#231200;fill-opacity:1;fill-rule:nonzero;stroke:none"
           id="path76" /><g
           id="g78"
           transform="translate(346.1768,354.2533)"><path
             d="M 0,0 C 0,1.628 -0.009,2.575 -0.027,2.846 -0.073,3.48 -0.183,3.91 -0.356,4.134 -0.471,4.28 -0.655,4.354 -0.912,4.354 -1.108,4.354 -1.264,4.299 -1.378,4.188 -1.547,4.029 -1.661,3.747 -1.721,3.343 -1.78,2.938 -1.81,1.526 -1.81,-0.891 c 0,-1.316 0.045,-2.198 0.137,-2.646 0.069,-0.324 0.167,-0.541 0.295,-0.651 0.128,-0.11 0.297,-0.165 0.508,-0.165 0.228,0 0.399,0.074 0.514,0.219 0.192,0.257 0.301,0.652 0.329,1.187 z m 2.111,-0.014 c 0,-0.927 -0.13,-1.793 -0.39,-2.597 C 1.565,-3.105 1.356,-3.51 1.094,-3.825 0.83,-4.141 0.532,-4.391 0.199,-4.575 c -0.334,-0.186 -0.697,-0.279 -1.091,-0.279 -0.447,0 -0.852,0.115 -1.212,0.343 -0.362,0.23 -0.682,0.556 -0.96,0.981 -0.202,0.311 -0.377,0.724 -0.528,1.241 -0.196,0.699 -0.295,1.421 -0.295,2.166 0,1.01 0.142,1.937 0.425,2.783 0.233,0.699 0.587,1.236 1.063,1.608 0.475,0.373 0.977,0.558 1.507,0.558 0.54,0 1.043,-0.183 1.512,-0.552 C 1.089,3.907 1.433,3.412 1.652,2.79 1.958,1.936 2.111,1.001 2.111,-0.014"
             style="fill:#231200;fill-opacity:1;fill-rule:nonzero;stroke:none"
             id="path80" /></g><g
           id="g82"
           transform="translate(350.168,353.0951)"><path
             d="M 0,0 H 2.701 V 3.668 Z M -0.665,0 3.75,5.984 H 4.586 V 0 H 5.437 V -1.419 H 4.586 V -3.503 H 2.701 v 2.084 h -3.366 z"
             style="fill:#231200;fill-opacity:1;fill-rule:nonzero;stroke:none"
             id="path84" /></g><path
           d="m 360.863,352.108 h -3.996 v 1.419 h 3.996 z"
           style="fill:#231200;fill-opacity:1;fill-rule:nonzero;stroke:none"
           id="path86" /><g
           id="g88"
           transform="translate(365.9453,354.2533)"><path
             d="m 0,0 c 0,1.628 -0.01,2.575 -0.027,2.846 -0.046,0.634 -0.156,1.064 -0.329,1.288 -0.115,0.146 -0.3,0.22 -0.556,0.22 -0.196,0 -0.353,-0.055 -0.466,-0.166 -0.169,-0.159 -0.284,-0.441 -0.343,-0.845 -0.059,-0.405 -0.09,-1.817 -0.09,-4.234 0,-1.316 0.046,-2.198 0.138,-2.646 0.069,-0.324 0.167,-0.541 0.295,-0.651 0.127,-0.11 0.297,-0.165 0.507,-0.165 0.228,0 0.4,0.074 0.515,0.219 0.191,0.257 0.3,0.652 0.329,1.187 z M 2.111,-0.014 C 2.111,-0.941 1.98,-1.807 1.721,-2.611 1.565,-3.105 1.356,-3.51 1.093,-3.825 0.83,-4.141 0.532,-4.391 0.198,-4.575 c -0.333,-0.186 -0.696,-0.279 -1.09,-0.279 -0.448,0 -0.852,0.115 -1.212,0.343 -0.362,0.23 -0.682,0.556 -0.96,0.981 -0.202,0.311 -0.377,0.724 -0.529,1.241 -0.196,0.699 -0.295,1.421 -0.295,2.166 0,1.01 0.142,1.937 0.426,2.783 0.233,0.699 0.587,1.236 1.063,1.608 0.475,0.373 0.977,0.558 1.507,0.558 0.539,0 1.043,-0.183 1.512,-0.552 C 1.089,3.907 1.433,3.412 1.651,2.79 1.958,1.936 2.111,1.001 2.111,-0.014"
             style="fill:#231200;fill-opacity:1;fill-rule:nonzero;stroke:none"
             id="path90" /></g><g
           id="g92"
           transform="translate(369.9365,353.0951)"><path
             d="M 0,0 H 2.7 V 3.668 Z M -0.665,0 3.749,5.984 H 4.586 V 0 h 0.85 V -1.419 H 4.586 V -3.503 H 2.7 v 2.084 h -3.365 z"
             style="fill:#231200;fill-opacity:1;fill-rule:nonzero;stroke:none"
             id="path94" /></g><g
           id="g96"
           transform="translate(233.1348,377.2679)"><path
             d="M 0,0 C 0.297,0 0.549,-0.104 0.754,-0.312 0.96,-0.52 1.063,-0.77 1.063,-1.062 1.063,-1.354 0.959,-1.604 0.751,-1.81 0.543,-2.015 0.292,-2.118 0,-2.118 c -0.292,0 -0.542,0.103 -0.747,0.308 -0.206,0.206 -0.309,0.456 -0.309,0.748 0,0.292 0.103,0.542 0.309,0.75 C -0.542,-0.104 -0.292,0 0,0 m 0.96,-3.105 v -5.08 c 0,-0.453 0.052,-0.741 0.158,-0.867 0.105,-0.126 0.311,-0.198 0.616,-0.216 v -0.247 h -3.462 v 0.247 c 0.284,0.009 0.494,0.091 0.631,0.247 0.092,0.105 0.138,0.383 0.138,0.836 v 3.743 c 0,0.453 -0.053,0.742 -0.158,0.867 -0.106,0.126 -0.309,0.198 -0.611,0.217 v 0.253 z"
             style="fill:#231200;fill-opacity:1;fill-rule:nonzero;stroke:none"
             id="path98" /></g><g
           id="g100"
           transform="translate(238.4629,374.1625)"><path
             d="m 0,0 v -0.829 c 0.329,0.356 0.645,0.616 0.946,0.778 0.302,0.162 0.626,0.243 0.973,0.243 0.416,0 0.762,-0.115 1.036,-0.346 0.274,-0.231 0.457,-0.518 0.548,-0.861 0.073,-0.259 0.11,-0.76 0.11,-1.501 v -2.495 c 0,-0.494 0.044,-0.801 0.134,-0.922 0.088,-0.121 0.274,-0.198 0.558,-0.229 V -6.409 H 1.062 v 0.247 c 0.243,0.031 0.417,0.132 0.521,0.301 0.074,0.114 0.11,0.398 0.11,0.85 v 2.852 c 0,0.525 -0.02,0.857 -0.061,0.994 C 1.59,-1.028 1.521,-0.922 1.422,-0.847 1.324,-0.771 1.216,-0.733 1.097,-0.733 0.704,-0.733 0.338,-1.015 0,-1.576 V -5.011 C 0,-5.49 0.044,-5.795 0.134,-5.923 0.223,-6.051 0.388,-6.131 0.631,-6.162 v -0.247 h -3.243 v 0.247 c 0.27,0.027 0.462,0.113 0.576,0.26 0.078,0.1 0.117,0.397 0.117,0.891 v 3.619 c 0,0.485 -0.045,0.787 -0.134,0.906 -0.089,0.119 -0.275,0.196 -0.559,0.233 V 0 Z"
             style="fill:#231200;fill-opacity:1;fill-rule:nonzero;stroke:none"
             id="path102" /></g><g
           id="g104"
           transform="translate(248.0552,374.3412)"><path
             d="M 0,0 0.103,-2.187 H -0.13 c -0.279,0.649 -0.569,1.092 -0.868,1.33 -0.299,0.238 -0.597,0.356 -0.894,0.356 -0.188,0 -0.347,-0.062 -0.48,-0.188 -0.133,-0.125 -0.199,-0.271 -0.199,-0.435 0,-0.124 0.046,-0.243 0.137,-0.356 0.146,-0.188 0.556,-0.509 1.227,-0.964 0.672,-0.454 1.114,-0.841 1.327,-1.159 0.212,-0.317 0.318,-0.672 0.318,-1.066 0,-0.356 -0.088,-0.706 -0.267,-1.049 -0.178,-0.343 -0.429,-0.605 -0.754,-0.788 -0.325,-0.182 -0.683,-0.274 -1.076,-0.274 -0.306,0 -0.716,0.096 -1.227,0.288 -0.137,0.051 -0.231,0.075 -0.281,0.075 -0.151,0 -0.277,-0.113 -0.377,-0.343 h -0.227 l -0.109,2.304 h 0.233 c 0.206,-0.604 0.487,-1.056 0.846,-1.357 0.359,-0.302 0.698,-0.453 1.018,-0.453 0.22,0 0.399,0.068 0.538,0.203 0.14,0.134 0.21,0.297 0.21,0.49 0,0.219 -0.069,0.408 -0.206,0.568 -0.137,0.16 -0.443,0.402 -0.919,0.728 -0.699,0.483 -1.152,0.853 -1.357,1.11 -0.302,0.374 -0.452,0.788 -0.452,1.24 0,0.494 0.17,0.941 0.511,1.341 0.34,0.399 0.832,0.6 1.477,0.6 0.347,0 0.683,-0.085 1.007,-0.254 0.124,-0.069 0.224,-0.103 0.302,-0.103 0.082,0 0.148,0.017 0.199,0.052 0.05,0.034 0.13,0.131 0.24,0.291 z"
             style="fill:#231200;fill-opacity:1;fill-rule:nonzero;stroke:none"
             id="path106" /></g><g
           id="g108"
           transform="translate(252.3608,376.5072)"><path
             d="M 0,0 V -2.345 H 1.522 V -3.023 H 0 v -3.956 c 0,-0.37 0.017,-0.609 0.052,-0.716 0.034,-0.107 0.094,-0.195 0.181,-0.26 0.087,-0.066 0.167,-0.1 0.24,-0.1 0.298,0 0.578,0.227 0.843,0.679 l 0.206,-0.151 c -0.37,-0.877 -0.971,-1.316 -1.803,-1.316 -0.407,0 -0.751,0.113 -1.031,0.339 -0.282,0.227 -0.461,0.479 -0.539,0.758 -0.045,0.155 -0.068,0.575 -0.068,1.261 v 3.462 h -0.837 v 0.24 c 0.576,0.407 1.067,0.834 1.471,1.282 0.404,0.448 0.757,0.948 1.059,1.501 z"
             style="fill:#231200;fill-opacity:1;fill-rule:nonzero;stroke:none"
             id="path110" /></g><g
           id="g112"
           transform="translate(256.7158,374.348)"><path
             d="M 0,0 C 0.315,0 0.583,-0.11 0.805,-0.333 1.027,-0.555 1.138,-0.822 1.138,-1.138 1.138,-1.453 1.027,-1.722 0.805,-1.943 0.583,-2.165 0.315,-2.276 0,-2.276 c -0.315,0 -0.584,0.111 -0.806,0.333 -0.221,0.221 -0.332,0.49 -0.332,0.805 0,0.316 0.111,0.583 0.332,0.805 C -0.584,-0.11 -0.315,0 0,0 m -0.007,-4.483 c 0.319,0 0.59,-0.113 0.812,-0.336 0.222,-0.224 0.333,-0.493 0.333,-0.809 0,-0.315 -0.113,-0.584 -0.336,-0.806 -0.224,-0.221 -0.494,-0.333 -0.809,-0.333 -0.315,0 -0.584,0.112 -0.805,0.333 -0.222,0.222 -0.333,0.491 -0.333,0.806 0,0.316 0.111,0.585 0.333,0.809 0.221,0.223 0.49,0.336 0.805,0.336"
             style="fill:#231200;fill-opacity:1;fill-rule:nonzero;stroke:none"
             id="path114" /></g><g
           id="g116"
           transform="translate(266.4448,373.8607)"><path
             d="m 0,0 c -0.174,0 -0.345,-0.096 -0.514,-0.287 -0.229,-0.261 -0.473,-0.695 -0.734,-1.303 -0.466,-1.093 -0.699,-1.97 -0.699,-2.633 0,-0.201 0.042,-0.356 0.127,-0.465 0.085,-0.11 0.177,-0.166 0.278,-0.166 0.086,0 0.212,0.065 0.376,0.193 0.233,0.179 0.483,0.479 0.748,0.905 0.265,0.425 0.482,0.897 0.651,1.415 0.169,0.519 0.254,0.998 0.254,1.437 0,0.315 -0.06,0.554 -0.179,0.719 C 0.222,-0.062 0.119,0 0,0 M 1.035,0.233 2.708,0.302 1.453,-4.003 C 1.312,-4.479 1.241,-4.835 1.241,-5.072 c 0,-0.147 0.053,-0.274 0.161,-0.381 0.107,-0.108 0.239,-0.161 0.394,-0.161 0.315,0 0.723,0.181 1.224,0.545 0.5,0.363 0.914,0.882 1.24,1.556 0.327,0.674 0.49,1.393 0.49,2.157 0,1.26 -0.405,2.296 -1.216,3.108 -0.812,0.811 -1.868,1.217 -3.171,1.217 -1.124,0 -2.146,-0.264 -3.064,-0.792 -0.919,-0.528 -1.648,-1.294 -2.187,-2.3 -0.539,-1.005 -0.809,-2.084 -0.809,-3.235 0,-1.581 0.504,-2.876 1.512,-3.884 1.007,-1.008 2.29,-1.512 3.849,-1.512 1.284,0 2.436,0.346 3.455,1.035 1.019,0.691 1.741,1.605 2.166,2.742 H 5.704 C 5.155,-6.32 4.356,-7.35 3.308,-8.064 2.259,-8.78 1.04,-9.138 -0.35,-9.138 c -1.759,0 -3.211,0.569 -4.353,1.704 -1.142,1.135 -1.714,2.574 -1.714,4.315 0,1.197 0.284,2.307 0.851,3.329 0.566,1.021 1.361,1.809 2.385,2.361 1.024,0.553 2.157,0.829 3.4,0.829 1.01,0 1.893,-0.202 2.65,-0.606 C 3.625,2.39 4.193,1.821 4.572,1.091 4.952,0.359 5.141,-0.413 5.141,-1.227 5.141,-2.173 4.937,-3.036 4.528,-3.818 4.119,-4.6 3.609,-5.176 2.999,-5.549 2.389,-5.922 1.732,-6.107 1.028,-6.107 c -0.452,0 -0.798,0.112 -1.035,0.336 -0.238,0.223 -0.356,0.511 -0.356,0.863 0,0.247 0.054,0.569 0.164,0.967 -0.38,-0.631 -0.674,-1.067 -0.884,-1.31 -0.288,-0.324 -0.574,-0.561 -0.857,-0.713 -0.183,-0.096 -0.391,-0.143 -0.624,-0.143 -0.325,0 -0.598,0.128 -0.819,0.386 -0.222,0.259 -0.333,0.637 -0.333,1.135 0,0.512 0.075,1.014 0.223,1.505 0.148,0.491 0.351,0.953 0.607,1.385 0.256,0.431 0.552,0.819 0.887,1.162 0.336,0.343 0.714,0.626 1.135,0.849 0.215,0.12 0.446,0.179 0.693,0.179 0.255,0 0.466,-0.08 0.633,-0.24 0.167,-0.16 0.281,-0.439 0.34,-0.836 z"
             style="fill:#231200;fill-opacity:1;fill-rule:nonzero;stroke:none"
             id="path118" /></g><path
           d="m 272.678,365.621 h 7.28 v -0.898 h -7.28 z"
           style="fill:#231200;fill-opacity:1;fill-rule:nonzero;stroke:none"
           id="path120" /><g
           id="g122"
           transform="translate(283.2568,377.0492)"><path
             d="m 0,0 v -6.115 l 1.487,1.46 c 0.306,0.298 0.497,0.511 0.573,0.644 0.075,0.133 0.113,0.261 0.113,0.384 0,0.124 -0.05,0.227 -0.151,0.309 -0.1,0.082 -0.297,0.141 -0.589,0.178 v 0.253 H 4.305 V -3.14 C 4.031,-3.153 3.791,-3.219 3.585,-3.335 3.379,-3.452 2.978,-3.803 2.379,-4.388 L 1.679,-5.073 3.188,-7.28 C 3.795,-8.176 4.157,-8.679 4.271,-8.789 4.426,-8.944 4.623,-9.031 4.86,-9.049 V -9.296 H 1.549 v 0.247 c 0.147,0 0.253,0.028 0.319,0.082 0.066,0.055 0.099,0.114 0.099,0.178 0,0.105 -0.095,0.3 -0.288,0.583 L 0.411,-6.349 0,-6.753 v -1.151 c 0,-0.49 0.045,-0.794 0.137,-0.915 0.092,-0.121 0.279,-0.199 0.562,-0.23 v -0.247 h -3.311 v 0.247 c 0.27,0.028 0.462,0.113 0.576,0.26 0.078,0.101 0.117,0.395 0.117,0.885 v 6.512 c 0,0.485 -0.045,0.786 -0.134,0.905 -0.09,0.119 -0.276,0.196 -0.559,0.233 V 0 Z"
             style="fill:#231200;fill-opacity:1;fill-rule:nonzero;stroke:none"
             id="path124" /></g><g
           id="g126"
           transform="translate(291.8608,373.8685)"><path
             d="m 0,0 c -0.233,0 -0.433,-0.089 -0.6,-0.265 -0.167,-0.175 -0.276,-0.523 -0.329,-1.042 -0.052,-0.518 -0.078,-1.239 -0.078,-2.163 0,-0.488 0.031,-0.945 0.095,-1.37 0.051,-0.325 0.158,-0.572 0.323,-0.741 0.164,-0.169 0.352,-0.253 0.562,-0.253 0.205,0 0.377,0.057 0.514,0.171 0.178,0.155 0.297,0.373 0.356,0.651 0.092,0.435 0.137,1.312 0.137,2.633 0,0.776 -0.043,1.31 -0.13,1.601 -0.086,0.29 -0.215,0.501 -0.384,0.633 C 0.347,-0.049 0.192,0 0,0 m -0.027,0.486 c 0.558,0 1.076,-0.144 1.556,-0.431 0.48,-0.288 0.844,-0.698 1.094,-1.228 0.249,-0.53 0.373,-1.11 0.373,-1.741 0,-0.909 -0.231,-1.67 -0.692,-2.282 -0.558,-0.741 -1.328,-1.112 -2.311,-1.112 -0.964,0 -1.706,0.339 -2.227,1.015 -0.521,0.677 -0.782,1.46 -0.782,2.352 0,0.919 0.266,1.719 0.799,2.402 0.532,0.684 1.262,1.025 2.19,1.025"
             style="fill:#231200;fill-opacity:1;fill-rule:nonzero;stroke:none"
             id="path128" /></g><g
           id="g130"
           transform="translate(298.6904,377.0492)"><path
             d="m 0,0 v -7.966 c 0,-0.453 0.052,-0.741 0.158,-0.867 0.105,-0.126 0.311,-0.198 0.616,-0.216 v -0.247 h -3.462 v 0.247 c 0.284,0.009 0.494,0.091 0.631,0.246 0.092,0.106 0.138,0.384 0.138,0.837 v 6.636 c 0,0.448 -0.053,0.734 -0.158,0.86 -0.106,0.126 -0.309,0.198 -0.611,0.216 l 0,0.254 z"
             style="fill:#231200;fill-opacity:1;fill-rule:nonzero;stroke:none"
             id="path132" /></g><g
           id="g134"
           transform="translate(302.915,372.9086)"><path
             d="m 0,0 v -2.852 c 0,-0.581 0.014,-0.951 0.041,-1.111 0.045,-0.269 0.155,-0.487 0.329,-0.654 0.174,-0.167 0.395,-0.25 0.665,-0.25 0.233,0 0.433,0.065 0.6,0.198 0.167,0.133 0.305,0.396 0.418,0.789 0.112,0.393 0.168,1.101 0.168,2.125 0,0.983 -0.123,1.656 -0.37,2.023 C 1.672,0.532 1.433,0.665 1.131,0.665 0.737,0.665 0.36,0.443 0,0 M 0,4.141 V 0.609 c 0.539,0.559 1.128,0.837 1.769,0.837 0.438,0 0.852,-0.129 1.24,-0.387 C 3.397,0.801 3.701,0.434 3.921,-0.041 4.141,-0.517 4.25,-1.065 4.25,-1.687 4.25,-2.386 4.11,-3.021 3.832,-3.593 3.553,-4.164 3.181,-4.6 2.714,-4.898 2.248,-5.197 1.716,-5.348 1.117,-5.348 c -0.347,0 -0.656,0.055 -0.926,0.165 -0.269,0.11 -0.534,0.288 -0.795,0.535 l -1.062,-0.693 h -0.233 v 8.152 c 0,0.37 -0.016,0.598 -0.048,0.685 -0.046,0.128 -0.117,0.223 -0.216,0.284 -0.099,0.062 -0.264,0.097 -0.497,0.107 v 0.254 z"
             style="fill:#231200;fill-opacity:1;fill-rule:nonzero;stroke:none"
             id="path136" /></g><g
           id="g138"
           transform="translate(312.1299,369.1996)"><path
             d="M 0,0 V 2.146 C -0.553,1.821 -0.965,1.474 -1.234,1.104 -1.412,0.857 -1.502,0.607 -1.502,0.356 c 0,-0.21 0.076,-0.395 0.227,-0.555 0.114,-0.123 0.274,-0.185 0.479,-0.185 0.23,0 0.494,0.128 0.796,0.384 m 0,-0.5 c -0.782,-0.69 -1.483,-1.035 -2.104,-1.035 -0.367,0 -0.67,0.119 -0.913,0.359 -0.242,0.24 -0.363,0.541 -0.363,0.902 0,0.489 0.21,0.928 0.631,1.32 0.421,0.391 1.337,0.91 2.749,1.559 L 0,3.249 C 0,3.733 -0.026,4.039 -0.079,4.165 -0.132,4.29 -0.23,4.4 -0.377,4.493 c -0.146,0.094 -0.311,0.141 -0.494,0.141 -0.297,0 -0.541,-0.066 -0.733,-0.198 -0.12,-0.082 -0.178,-0.179 -0.178,-0.289 0,-0.095 0.063,-0.214 0.191,-0.356 0.174,-0.196 0.261,-0.387 0.261,-0.569 0,-0.224 -0.083,-0.414 -0.25,-0.573 -0.167,-0.157 -0.385,-0.236 -0.655,-0.236 -0.288,0 -0.529,0.087 -0.723,0.261 -0.194,0.174 -0.292,0.377 -0.292,0.61 0,0.328 0.131,0.643 0.391,0.943 0.26,0.298 0.624,0.528 1.09,0.688 0.466,0.16 0.951,0.24 1.454,0.24 0.607,0 1.088,-0.129 1.442,-0.387 C 1.481,4.51 1.711,4.229 1.816,3.928 1.881,3.736 1.912,3.295 1.912,2.605 V 0.116 c 0,-0.292 0.012,-0.476 0.034,-0.552 0.024,-0.075 0.058,-0.13 0.104,-0.168 0.045,-0.036 0.097,-0.054 0.157,-0.054 0.119,0 0.24,0.085 0.363,0.254 L 2.776,-0.569 C 2.548,-0.907 2.311,-1.152 2.066,-1.306 1.822,-1.459 1.545,-1.535 1.233,-1.535 0.868,-1.535 0.582,-1.45 0.377,-1.278 0.171,-1.107 0.045,-0.848 0,-0.5"
             style="fill:#231200;fill-opacity:1;fill-rule:nonzero;stroke:none"
             id="path140" /></g><g
           id="g142"
           transform="translate(320.0146,374.3412)"><path
             d="M 0,0 0.103,-2.187 H -0.13 c -0.279,0.649 -0.568,1.092 -0.867,1.33 -0.3,0.238 -0.598,0.356 -0.895,0.356 -0.188,0 -0.347,-0.062 -0.48,-0.188 -0.133,-0.125 -0.198,-0.271 -0.198,-0.435 0,-0.124 0.045,-0.243 0.136,-0.356 0.147,-0.188 0.556,-0.509 1.228,-0.964 0.671,-0.454 1.113,-0.841 1.326,-1.159 0.212,-0.317 0.318,-0.672 0.318,-1.066 0,-0.356 -0.088,-0.706 -0.267,-1.049 -0.178,-0.343 -0.429,-0.605 -0.754,-0.788 -0.324,-0.182 -0.683,-0.274 -1.076,-0.274 -0.306,0 -0.715,0.096 -1.227,0.288 -0.137,0.051 -0.23,0.075 -0.281,0.075 -0.151,0 -0.276,-0.113 -0.377,-0.343 h -0.227 l -0.109,2.304 h 0.233 c 0.206,-0.604 0.488,-1.056 0.846,-1.357 0.36,-0.302 0.698,-0.453 1.019,-0.453 0.219,0 0.398,0.068 0.538,0.203 0.14,0.134 0.209,0.297 0.209,0.49 0,0.219 -0.069,0.408 -0.206,0.568 -0.137,0.16 -0.443,0.402 -0.918,0.728 -0.699,0.483 -1.153,0.853 -1.358,1.11 -0.301,0.374 -0.452,0.788 -0.452,1.24 0,0.494 0.17,0.941 0.511,1.341 0.34,0.399 0.832,0.6 1.477,0.6 0.347,0 0.683,-0.085 1.007,-0.254 0.124,-0.069 0.224,-0.103 0.302,-0.103 0.082,0 0.149,0.017 0.199,0.052 0.05,0.034 0.13,0.131 0.24,0.291 z"
             style="fill:#231200;fill-opacity:1;fill-rule:nonzero;stroke:none"
             id="path144" /></g><g
           id="g146"
           transform="translate(324.3965,374.1625)"><path
             d="m 0,0 v -0.829 c 0.329,0.356 0.645,0.616 0.945,0.778 0.302,0.162 0.627,0.243 0.974,0.243 0.416,0 0.761,-0.115 1.035,-0.346 0.275,-0.231 0.457,-0.518 0.549,-0.861 0.072,-0.259 0.109,-0.76 0.109,-1.501 v -2.495 c 0,-0.494 0.045,-0.801 0.134,-0.922 0.089,-0.121 0.275,-0.198 0.559,-0.229 V -6.409 H 1.062 v 0.247 c 0.243,0.031 0.416,0.132 0.521,0.301 0.073,0.114 0.11,0.398 0.11,0.85 v 2.852 c 0,0.525 -0.021,0.857 -0.062,0.994 C 1.59,-1.028 1.521,-0.922 1.422,-0.847 1.323,-0.771 1.216,-0.733 1.097,-0.733 0.703,-0.733 0.338,-1.015 0,-1.576 V -5.011 C 0,-5.49 0.044,-5.795 0.134,-5.923 0.223,-6.051 0.388,-6.131 0.63,-6.162 v -0.247 h -3.242 v 0.247 c 0.269,0.027 0.462,0.113 0.576,0.26 0.077,0.1 0.116,0.397 0.116,0.891 v 3.619 c 0,0.485 -0.045,0.787 -0.134,0.906 -0.089,0.119 -0.275,0.196 -0.558,0.233 V 0 Z"
             style="fill:#231200;fill-opacity:1;fill-rule:nonzero;stroke:none"
             id="path148" /></g><g
           id="g150"
           transform="translate(331.4795,377.2679)"><path
             d="M 0,0 C 0.297,0 0.548,-0.104 0.754,-0.312 0.959,-0.52 1.062,-0.77 1.062,-1.062 1.062,-1.354 0.958,-1.604 0.75,-1.81 0.542,-2.015 0.292,-2.118 0,-2.118 c -0.293,0 -0.542,0.103 -0.748,0.308 -0.205,0.206 -0.308,0.456 -0.308,0.748 0,0.292 0.103,0.542 0.308,0.75 C -0.542,-0.104 -0.293,0 0,0 m 0.959,-3.105 v -5.08 c 0,-0.453 0.053,-0.741 0.158,-0.867 0.106,-0.126 0.311,-0.198 0.617,-0.216 v -0.247 h -3.462 v 0.247 c 0.284,0.009 0.494,0.091 0.63,0.247 0.092,0.105 0.138,0.383 0.138,0.836 v 3.743 c 0,0.453 -0.053,0.742 -0.158,0.867 -0.105,0.126 -0.309,0.198 -0.61,0.217 v 0.253 z"
             style="fill:#231200;fill-opacity:1;fill-rule:nonzero;stroke:none"
             id="path152" /></g><g
           id="g154"
           transform="translate(337.1289,367.4926)"><path
             d="M 0,0 -2.07,4.751 C -2.381,5.468 -2.61,5.909 -2.759,6.074 -2.907,6.238 -3.087,6.353 -3.297,6.417 V 6.67 H 0.11 V 6.417 C -0.113,6.407 -0.271,6.364 -0.363,6.286 -0.454,6.209 -0.5,6.115 -0.5,6.005 c 0,-0.174 0.114,-0.517 0.343,-1.028 l 1.096,-2.509 0.748,1.94 c 0.27,0.69 0.404,1.17 0.404,1.44 0,0.169 -0.056,0.303 -0.168,0.404 C 1.812,6.353 1.614,6.407 1.33,6.417 V 6.67 H 3.476 V 6.417 C 3.266,6.394 3.095,6.312 2.962,6.173 2.829,6.034 2.607,5.56 2.297,4.751 L 0.467,0 c -0.462,-1.188 -0.805,-1.919 -1.029,-2.193 -0.315,-0.384 -0.71,-0.577 -1.186,-0.577 -0.379,0 -0.687,0.109 -0.922,0.327 -0.235,0.216 -0.352,0.478 -0.352,0.784 0,0.265 0.081,0.484 0.243,0.658 0.162,0.174 0.362,0.261 0.599,0.261 0.229,0 0.412,-0.073 0.552,-0.22 0.14,-0.146 0.212,-0.372 0.216,-0.679 0.005,-0.173 0.025,-0.285 0.062,-0.336 0.037,-0.049 0.089,-0.075 0.158,-0.075 0.109,0 0.226,0.067 0.349,0.199 0.183,0.192 0.398,0.631 0.645,1.317 z"
             style="fill:#231200;fill-opacity:1;fill-rule:nonzero;stroke:none"
             id="path156" /></g><g
           id="g158"
           transform="translate(344.1025,376.5072)"><path
             d="M 0,0 V -2.345 H 1.521 V -3.023 H 0 v -3.956 c 0,-0.37 0.018,-0.609 0.052,-0.716 0.034,-0.107 0.094,-0.195 0.181,-0.26 0.086,-0.066 0.167,-0.1 0.24,-0.1 0.298,0 0.579,0.227 0.843,0.679 l 0.205,-0.151 c -0.37,-0.877 -0.97,-1.316 -1.802,-1.316 -0.406,0 -0.75,0.113 -1.031,0.339 -0.282,0.227 -0.461,0.479 -0.539,0.758 -0.045,0.155 -0.068,0.575 -0.068,1.261 v 3.462 h -0.837 v 0.24 c 0.576,0.407 1.067,0.834 1.471,1.282 0.404,0.448 0.758,0.948 1.058,1.501 z"
             style="fill:#231200;fill-opacity:1;fill-rule:nonzero;stroke:none"
             id="path160" /></g><g
           id="g162"
           transform="translate(350.6367,374.3412)"><path
             d="M 0,0 0.104,-2.187 H -0.13 c -0.278,0.649 -0.568,1.092 -0.867,1.33 -0.299,0.238 -0.598,0.356 -0.895,0.356 -0.187,0 -0.347,-0.062 -0.479,-0.188 -0.133,-0.125 -0.199,-0.271 -0.199,-0.435 0,-0.124 0.046,-0.243 0.136,-0.356 0.147,-0.188 0.556,-0.509 1.228,-0.964 0.672,-0.454 1.114,-0.841 1.326,-1.159 0.213,-0.317 0.319,-0.672 0.319,-1.066 0,-0.356 -0.089,-0.706 -0.267,-1.049 -0.179,-0.343 -0.43,-0.605 -0.754,-0.788 -0.325,-0.182 -0.684,-0.274 -1.076,-0.274 -0.307,0 -0.716,0.096 -1.228,0.288 -0.136,0.051 -0.23,0.075 -0.281,0.075 -0.15,0 -0.276,-0.113 -0.377,-0.343 H -3.77 l -0.11,2.304 h 0.234 c 0.205,-0.604 0.487,-1.056 0.846,-1.357 0.359,-0.302 0.698,-0.453 1.018,-0.453 0.22,0 0.398,0.068 0.538,0.203 0.14,0.134 0.209,0.297 0.209,0.49 0,0.219 -0.069,0.408 -0.205,0.568 -0.138,0.16 -0.444,0.402 -0.919,0.728 -0.699,0.483 -1.152,0.853 -1.358,1.11 -0.301,0.374 -0.452,0.788 -0.452,1.24 0,0.494 0.17,0.941 0.511,1.341 0.34,0.399 0.833,0.6 1.478,0.6 0.346,0 0.682,-0.085 1.007,-0.254 0.123,-0.069 0.224,-0.103 0.301,-0.103 0.083,0 0.149,0.017 0.199,0.052 0.051,0.034 0.13,0.131 0.241,0.291 z"
             style="fill:#231200;fill-opacity:1;fill-rule:nonzero;stroke:none"
             id="path164" /></g><g
           id="g166"
           transform="translate(356.1426,371.6469)"><path
             d="M 0,0 C 0,0.736 -0.04,1.241 -0.12,1.515 -0.199,1.789 -0.324,1.997 -0.493,2.139 -0.589,2.222 -0.717,2.263 -0.877,2.263 -1.114,2.263 -1.309,2.146 -1.46,1.913 -1.729,1.506 -1.864,0.948 -1.864,0.24 V 0 Z M 1.687,-0.459 H -1.83 c 0.041,-0.851 0.268,-1.522 0.679,-2.016 0.315,-0.379 0.694,-0.569 1.137,-0.569 0.275,0 0.524,0.077 0.747,0.23 0.225,0.153 0.464,0.428 0.72,0.826 L 1.687,-2.139 C 1.34,-2.848 0.956,-3.349 0.535,-3.644 c -0.421,-0.294 -0.907,-0.442 -1.46,-0.442 -0.951,0 -1.671,0.366 -2.16,1.097 -0.393,0.59 -0.589,1.321 -0.589,2.194 0,1.069 0.289,1.92 0.867,2.554 0.578,0.633 1.255,0.949 2.033,0.949 0.648,0 1.212,-0.267 1.689,-0.799 C 1.393,1.377 1.65,0.587 1.687,-0.459"
             style="fill:#231200;fill-opacity:1;fill-rule:nonzero;stroke:none"
             id="path168" /></g><g
           id="g170"
           transform="translate(361.6016,377.0492)"><path
             d="m 0,0 v -3.709 c 0.352,0.37 0.674,0.632 0.966,0.785 0.293,0.153 0.596,0.23 0.912,0.23 0.402,0 0.746,-0.115 1.031,-0.343 0.286,-0.229 0.476,-0.497 0.57,-0.806 0.093,-0.308 0.14,-0.828 0.14,-1.559 v -2.502 c 0,-0.49 0.046,-0.794 0.137,-0.915 0.092,-0.121 0.277,-0.199 0.556,-0.23 v -0.247 h -3.25 v 0.247 c 0.229,0.031 0.4,0.123 0.514,0.274 0.082,0.119 0.123,0.409 0.123,0.871 v 2.858 c 0,0.53 -0.02,0.863 -0.061,0.998 C 1.597,-3.914 1.527,-3.809 1.429,-3.733 1.33,-3.657 1.22,-3.62 1.097,-3.62 0.914,-3.62 0.735,-3.683 0.562,-3.809 0.388,-3.935 0.201,-4.154 0,-4.47 v -3.434 c 0,-0.457 0.034,-0.743 0.103,-0.858 0.086,-0.155 0.264,-0.251 0.534,-0.287 v -0.247 h -3.249 v 0.247 c 0.269,0.028 0.462,0.113 0.576,0.26 0.077,0.101 0.116,0.395 0.116,0.885 v 6.512 c 0,0.485 -0.045,0.786 -0.134,0.905 -0.089,0.119 -0.275,0.196 -0.558,0.233 V 0 Z"
             style="fill:#231200;fill-opacity:1;fill-rule:nonzero;stroke:none"
             id="path172" /></g><path
           d="m 366.538,365.621 h 7.28 v -0.898 h -7.28 z"
           style="fill:#231200;fill-opacity:1;fill-rule:nonzero;stroke:none"
           id="path174" /><g
           id="g176"
           transform="translate(236.5557,426.8568)"><path
             d="m 0,0 c -1.923,0 -2.884,0.733 -2.884,2.201 0.011,0.9 0.314,2.397 0.908,4.492 0.595,2.095 0.898,3.62 0.909,4.576 0,1.545 -0.683,2.317 -2.05,2.317 -0.3,0 -0.673,-0.044 -1.117,-0.133 L -6.968,0.583 h -4.918 l 4.951,23.223 c -1.511,-0.645 -2.687,-1.595 -3.526,-2.851 -0.839,-1.256 -1.258,-2.801 -1.258,-4.635 0,-0.9 0.138,-1.594 0.416,-2.083 0.045,-0.089 0.067,-0.167 0.067,-0.234 -1.845,0 -2.984,0.584 -3.417,1.751 -0.156,0.422 -0.234,0.944 -0.234,1.567 0,1.144 0.361,2.245 1.084,3.301 1.456,2.167 3.656,3.773 6.601,4.817 1.412,0.5 2.84,0.75 4.285,0.75 0.466,0 0.922,-0.022 1.367,-0.066 L -3.734,15.92 c 0.711,2.045 1.717,3.996 3.017,5.852 1.3,1.856 2.443,3.056 3.426,3.601 0.983,0.544 1.859,0.816 2.625,0.816 0.768,0 1.329,-0.144 1.685,-0.433 0.622,-0.5 0.933,-1.045 0.933,-1.633 0,-0.968 -0.22,-1.645 -0.659,-2.035 C 6.854,21.7 6.335,21.505 5.735,21.505 c -0.978,0 -1.651,0.456 -2.017,1.367 -2.156,-1.278 -4.118,-3.873 -5.885,-7.785 0.278,0.022 0.533,0.033 0.767,0.033 h 0.667 c 2.278,0 3.623,-0.733 4.034,-2.201 0.133,-0.444 0.2,-0.972 0.2,-1.583 C 3.501,10.414 3.223,8.941 2.667,6.918 2.112,4.896 1.834,3.579 1.834,2.967 1.834,1.711 2.278,0.917 3.167,0.583 1.745,0.194 0.689,0 0,0"
             style="fill:#231200;fill-opacity:1;fill-rule:nonzero;stroke:none"
             id="path178" /></g><g
           id="g180"
           transform="translate(252.0928,433.225)"><path
             d="m 0,0 c 0.878,1.978 1.317,4.229 1.317,6.751 0,0.957 -0.092,1.657 -0.275,2.101 -0.184,0.444 -0.559,0.667 -1.125,0.667 -1.079,0 -2.095,-1.153 -3.051,-3.459 -0.956,-2.307 -1.434,-4.354 -1.434,-6.143 0,-1.101 0.1,-1.798 0.3,-2.093 0.2,-0.294 0.412,-0.48 0.634,-0.558 0.222,-0.078 0.539,-0.117 0.95,-0.117 0.411,0 0.864,0.256 1.359,0.767 C -0.831,-1.573 -0.389,-0.878 0,0 m 26.14,0.333 c -1.434,-4.212 -3.551,-6.318 -6.352,-6.318 -1.3,0 -2.298,0.347 -2.993,1.042 -0.694,0.694 -1.041,1.506 -1.041,2.434 0,0.928 0.25,2.52 0.75,4.776 l 1.5,6.769 C 16.859,9.036 15.99,8.558 15.396,7.602 14.801,6.646 14.298,5.212 13.887,3.301 13.476,1.389 13.136,-0.092 12.87,-1.142 12.603,-2.192 12.275,-3.073 11.886,-3.784 11.097,-5.251 9.835,-5.985 8.102,-5.985 7.046,-5.985 6.229,-5.724 5.651,-5.201 5.084,-4.679 4.707,-4.057 4.518,-3.334 2.628,-4.479 0.456,-5.273 -2,-5.718 c -0.768,-0.134 -1.523,-0.2 -2.268,-0.2 -1.656,0 -2.967,0.428 -3.934,1.284 -0.967,0.855 -1.45,2.136 -1.45,3.842 0,1.706 0.216,3.22 0.65,4.543 1.745,5.223 4.646,7.835 8.702,7.835 2.923,0 4.384,-1.817 4.384,-5.451 0,-3.924 -0.983,-7.08 -2.951,-9.469 1.267,0.411 2.34,0.889 3.218,1.434 0.045,0.766 0.25,1.375 0.617,1.825 C 5.334,0.375 5.81,0.6 6.393,0.6 6.977,0.6 7.43,0.436 7.752,0.108 8.074,-0.22 8.235,-0.659 8.235,-1.208 8.235,-1.759 8.099,-2.165 7.827,-2.426 7.555,-2.687 7.241,-2.795 6.885,-2.75 6.896,-2.984 6.988,-3.223 7.16,-3.468 c 0.172,-0.244 0.528,-0.366 1.067,-0.366 0.539,0 0.986,0.183 1.342,0.55 0.622,0.656 1.1,1.85 1.433,3.584 l 0.518,2.517 c 0.978,4.757 2.461,7.469 4.45,8.136 0.634,0.222 1.334,0.333 2.101,0.333 h 5.018 l -1.8,-8.469 -0.601,-2.634 c -0.144,-0.655 -0.216,-1.133 -0.216,-1.433 0,-0.956 0.455,-1.434 1.366,-1.434 0.689,0 1.24,0.264 1.651,0.792 0.411,0.528 0.817,1.269 1.217,2.225 z"
             style="fill:#231200;fill-opacity:1;fill-rule:nonzero;stroke:none"
             id="path182" /></g><g
           id="g184"
           transform="translate(281.75,430.891)"><path
             d="m 0,0 c 0.278,-0.345 0.703,-0.517 1.275,-0.517 0.573,0 1.061,0.181 1.467,0.542 0.406,0.361 0.764,0.825 1.075,1.392 0.556,1.034 0.97,2.267 1.243,3.701 0.272,1.434 0.408,2.562 0.408,3.384 0,0.823 -0.112,1.381 -0.334,1.675 -0.222,0.295 -0.575,0.442 -1.058,0.442 -0.484,0 -0.945,-0.172 -1.384,-0.516 C 2.253,9.758 1.861,9.319 1.517,8.786 0.906,7.808 0.431,6.632 0.091,5.26 -0.248,3.887 -0.417,2.753 -0.417,1.859 -0.417,0.964 -0.278,0.345 0,0 m 5.118,16.42 c -0.289,0 -0.434,-0.138 -0.434,-0.416 0,-0.133 0.189,-0.417 0.567,-0.85 C 7.285,12.775 8.302,10.236 8.302,7.535 8.302,4.834 7.58,2.378 6.135,0.167 5.435,-0.911 4.573,-1.806 3.551,-2.517 2.528,-3.229 1.478,-3.584 0.4,-3.584 c -1.979,0 -3.44,0.472 -4.384,1.417 -0.945,0.944 -1.417,2.395 -1.417,4.351 0,2.734 0.8,5.129 2.4,7.185 1.778,2.223 4.084,3.334 6.918,3.334 0.123,0 0.228,-0.006 0.317,-0.016 0.089,-0.012 0.178,-0.017 0.267,-0.017 -0.456,0.544 -0.928,1.05 -1.417,1.517 -0.489,0.466 -0.939,0.922 -1.351,1.367 -0.933,1.022 -1.4,1.981 -1.4,2.875 0,0.895 0.297,1.545 0.892,1.951 0.595,0.406 1.531,0.608 2.809,0.608 h 6.702 c 0.789,0 1.306,0.212 1.55,0.634 0.145,0.222 0.272,0.561 0.383,1.017 H 14.17 C 13.625,20.049 12.975,18.354 12.219,17.554 11.786,17.11 11.264,16.81 10.652,16.654 10.041,16.499 9.291,16.42 8.402,16.42 Z"
             style="fill:#231200;fill-opacity:1;fill-rule:nonzero;stroke:none"
             id="path186" /></g><g
           id="g188"
           transform="translate(302.2715,441.2601)"><path
             d="M 0,0 C 0,0.211 -0.098,0.48 -0.292,0.809 -0.486,1.136 -0.9,1.3 -1.534,1.3 c -0.633,0 -1.25,-0.339 -1.85,-1.017 -1.445,-1.633 -2.351,-3.978 -2.718,-7.034 -0.055,-0.467 -0.083,-0.962 -0.083,-1.484 0,-1.012 0.211,-1.717 0.634,-2.118 0.244,-0.244 0.55,-0.366 0.916,-0.366 0.678,0 1.295,0.269 1.851,0.808 0.555,0.539 0.939,1.276 1.15,2.209 z M 8.602,-7.702 C 7.157,-11.914 4.873,-14.02 1.75,-14.02 c -2.012,0 -3.128,1.045 -3.351,3.134 -1.489,-2.089 -3.225,-3.134 -5.209,-3.134 -1.984,0 -3.332,0.973 -4.043,2.917 -0.255,0.701 -0.383,1.498 -0.383,2.393 0,0.894 0.078,1.789 0.233,2.684 0.156,0.894 0.395,1.786 0.717,2.675 0.711,1.956 1.728,3.573 3.051,4.851 1.322,1.278 2.917,1.917 4.784,1.917 0.978,0 1.684,-0.164 2.117,-0.491 C 0.1,2.598 0.316,2.184 0.316,1.684 V 1.434 L 0.684,3.251 H 5.602 L 3.15,-8.352 c -0.099,-0.389 -0.149,-0.756 -0.149,-1.1 0,-0.978 0.467,-1.467 1.4,-1.467 1.211,0 2.134,1.072 2.767,3.217 z"
             style="fill:#231200;fill-opacity:1;fill-rule:nonzero;stroke:none"
             id="path190" /></g><g
           id="g192"
           transform="translate(317.875,444.8109)"><path
             d="m 0,0 c 2.734,0 4.101,-1.034 4.101,-3.101 0,-0.866 -0.178,-1.503 -0.534,-1.908 -0.355,-0.406 -0.755,-0.609 -1.2,-0.609 -0.444,0 -0.872,0.134 -1.283,0.4 0.277,0.734 0.416,1.406 0.416,2.017 0,0.934 -0.324,1.401 -0.975,1.401 -0.65,0 -1.337,-0.589 -2.058,-1.767 -1.034,-1.667 -1.745,-3.74 -2.134,-6.219 -0.111,-0.744 -0.167,-1.561 -0.167,-2.45 0,-1.645 0.783,-2.468 2.351,-2.468 1.311,0 2.414,0.292 3.308,0.876 0.895,0.583 1.843,1.442 2.843,2.576 h 1.167 c -2.557,-4.213 -5.685,-6.319 -9.386,-6.319 -1.623,0 -2.917,0.42 -3.884,1.259 -0.967,0.839 -1.451,2.226 -1.451,4.159 0,2.612 0.662,5.135 1.985,7.569 1,1.834 2.373,3.15 4.117,3.951 C -1.884,-0.211 -0.956,0 0,0"
             style="fill:#231200;fill-opacity:1;fill-rule:nonzero;stroke:none"
             id="path194" /></g><g
           id="g196"
           transform="translate(330.9111,430.8578)"><path
             d="M 0,0 C 0,0.778 0.262,2.373 0.784,4.784 H -3 l -1.751,-8.201 h -4.918 l 3.618,17.07 h 4.918 L -2.601,6.818 h 3.819 l 1.55,6.835 H 7.336 L 5.535,5.185 4.935,2.55 C 4.779,1.895 4.701,1.417 4.701,1.117 c 0,-0.956 0.456,-1.434 1.367,-1.434 0.69,0 1.24,0.267 1.651,0.8 0.411,0.523 0.817,1.262 1.217,2.218 h 1.433 C 8.936,-1.512 6.818,-3.618 4.018,-3.618 2.707,-3.618 1.712,-3.273 1.034,-2.584 0.345,-1.884 0,-1.022 0,0"
             style="fill:#231200;fill-opacity:1;fill-rule:nonzero;stroke:none"
             id="path198" /></g><g
           id="g200"
           transform="translate(363.6357,433.5585)"><path
             d="m 0,0 c -1.434,-4.212 -3.534,-6.318 -6.301,-6.318 -1.311,0 -2.312,0.35 -3.001,1.05 -0.689,0.7 -1.034,1.517 -1.034,2.451 0,0.922 0.268,2.584 0.801,4.984 l 1.083,4.851 -3.834,-2.217 c 0.545,-0.844 0.817,-2.062 0.817,-3.651 0,-1.578 -0.606,-3.145 -1.817,-4.701 -1.423,-1.845 -3.362,-2.767 -5.818,-2.767 -1.567,0 -2.773,0.383 -3.618,1.15 -0.844,0.767 -1.267,1.839 -1.267,3.217 0,0.612 0.078,1.262 0.233,1.951 l 2.251,10.953 h 4.718 l -2.534,-12.02 c -0.067,-0.2 -0.1,-0.517 -0.1,-0.95 0,-0.934 0.494,-1.4 1.484,-1.4 0.989,0 1.85,0.555 2.583,1.667 0.746,1.122 1.118,2.456 1.118,4 0,0.567 -0.167,1 -0.5,1.301 -0.267,-0.212 -0.581,-0.317 -0.943,-0.317 -0.361,0 -0.714,0.111 -1.058,0.333 -0.333,0.234 -0.5,0.615 -0.5,1.142 0,0.528 0.206,0.92 0.617,1.176 0.411,0.255 0.858,0.383 1.342,0.383 0.483,0 0.936,-0.067 1.358,-0.2 0.845,0.378 1.623,0.761 2.334,1.15 l 4.168,2.451 c 0.7,0.422 1.456,0.85 2.267,1.284 h 2.117 l -1.8,-8.469 -0.617,-2.634 c -0.145,-0.656 -0.217,-1.134 -0.217,-1.434 0,-0.956 0.456,-1.434 1.367,-1.434 0.69,0 1.239,0.267 1.651,0.801 0.411,0.522 0.816,1.261 1.216,2.217 z"
             style="fill:#231200;fill-opacity:1;fill-rule:nonzero;stroke:none"
             id="path202" /></g><g
           id="g204"
           transform="translate(368.9043,451.6127)"><path
             d="m 0,0 c 1.422,0 2.134,-0.65 2.134,-1.951 0,-0.666 -0.273,-1.177 -0.818,-1.533 0.356,-0.089 0.812,-0.134 1.368,-0.134 2.478,0 4.234,1.334 5.267,4.001 H 9.385 C 8.318,-2.74 6.668,-4.59 4.434,-5.168 3.723,-5.346 2.817,-5.435 1.717,-5.435 c -1.101,0 -2.039,0.264 -2.818,0.792 -0.778,0.528 -1.167,1.201 -1.167,2.018 0,0.816 0.206,1.458 0.618,1.925 C -1.239,-0.233 -0.689,0 0,0 m -2.018,-19.571 c 0,-1.001 0.339,-1.501 1.017,-1.501 1.2,0 2.112,1.006 2.734,3.018 L 4.051,-7.102 H 8.969 L 6.518,-18.705 c -0.1,-0.388 -0.15,-0.789 -0.15,-1.2 0,-0.778 0.467,-1.167 1.401,-1.167 0.244,0 0.622,0.072 1.132,0.217 -0.077,-1.234 -0.497,-2.128 -1.257,-2.684 -0.762,-0.556 -1.615,-0.834 -2.56,-0.834 -0.944,0 -1.706,0.281 -2.283,0.842 -0.578,0.562 -0.923,1.359 -1.034,2.393 -1.334,-2.156 -3.029,-3.235 -5.084,-3.235 -1.023,0 -1.89,0.323 -2.601,0.967 -0.7,0.645 -1.051,1.684 -1.051,3.118 0,0.644 0.089,1.389 0.267,2.234 l 2.317,10.952 h 4.918 l -2.451,-11.603 c -0.066,-0.289 -0.1,-0.577 -0.1,-0.866"
             style="fill:#231200;fill-opacity:1;fill-rule:nonzero;stroke:none"
             id="path206" /></g><g
           id="g208"
           transform="translate(284.1836,394.1166)"><path
             d="m 0,0 c 1.223,0 2.701,-0.355 4.435,-1.066 l 5.151,24.105 h 4.917 L 8.902,-3.084 c 1.334,-0.544 2.526,-0.816 3.576,-0.816 1.05,0 1.931,0.194 2.642,0.583 -0.144,-1.634 -0.538,-2.862 -1.183,-3.684 -0.645,-0.823 -1.653,-1.234 -3.026,-1.234 -1.372,0 -2.759,0.495 -4.159,1.484 -0.589,0.422 -1.184,0.883 -1.784,1.384 -2.289,1.911 -4.845,2.867 -7.669,2.867 -1.4,0 -2.433,-0.067 -3.1,-0.2 v 0.033 c 0,0.022 0.011,0.045 0.033,0.066 l 4.951,23.289 c -1.5,-0.622 -2.673,-1.558 -3.517,-2.808 -0.845,-1.251 -1.267,-2.798 -1.267,-4.643 0,-0.9 0.139,-1.595 0.416,-2.084 0.045,-0.089 0.067,-0.167 0.067,-0.233 -1.845,0 -2.984,0.583 -3.417,1.75 -0.156,0.423 -0.234,0.944 -0.234,1.567 0,1.145 0.362,2.245 1.084,3.301 1.456,2.167 3.656,3.773 6.602,4.817 1.411,0.5 2.839,0.75 4.284,0.75 0.466,0 0.923,-0.021 1.367,-0.066 L -0.316,0 Z"
             style="fill:#231200;fill-opacity:1;fill-rule:nonzero;stroke:none"
             id="path210" /></g><g
           id="g212"
           transform="translate(308.5225,405.9535)"><path
             d="m 0,0 c 0,0.822 -0.283,1.233 -0.85,1.233 -0.811,0 -1.62,-0.742 -2.425,-2.225 -0.806,-1.484 -1.375,-3.087 -1.709,-4.81 1.311,0.044 2.47,0.636 3.475,1.776 C -0.503,-2.888 0,-1.545 0,0 m 11.37,3.033 c 0,1.078 0.678,1.617 2.033,1.617 0.667,0 1.201,-0.294 1.601,-0.882 0.4,-0.59 0.6,-1.223 0.6,-1.902 0,-1.211 -0.37,-2.439 -1.109,-3.683 -0.738,-1.246 -1.997,-2.824 -3.775,-4.735 l 0.3,-1.667 c 0.189,-1.045 0.408,-1.808 0.658,-2.293 0.251,-0.483 0.748,-0.724 1.492,-0.724 0.378,0 0.745,0.072 1.101,0.216 -0.079,-1.144 -0.478,-2.017 -1.201,-2.617 -0.722,-0.6 -1.603,-0.9 -2.642,-0.9 -1.039,0 -1.856,0.369 -2.45,1.108 -0.595,0.74 -1.082,1.949 -1.459,3.626 -2.179,-2.222 -4.807,-3.689 -7.885,-4.401 -0.979,-0.222 -1.912,-0.333 -2.801,-0.333 -1.89,0 -3.393,0.441 -4.51,1.325 -1.116,0.884 -1.675,2.298 -1.675,4.243 0,2.5 0.661,4.968 1.984,7.402 1.012,1.855 2.389,3.178 4.134,3.967 0.9,0.422 1.834,0.633 2.8,0.633 1.579,0 2.652,-0.297 3.218,-0.891 0.567,-0.595 0.851,-1.387 0.851,-2.375 0,-1.956 -0.781,-3.613 -2.343,-4.969 -1.562,-1.356 -3.409,-2.1 -5.543,-2.234 -0.033,-0.167 -0.05,-0.328 -0.05,-0.483 v -0.45 c 0,-1.267 0.333,-2.145 1,-2.634 0.667,-0.489 1.39,-0.733 2.167,-0.733 1.489,0 2.965,0.344 4.427,1.033 1.461,0.689 2.747,1.64 3.858,2.85 L 4.201,2.733 H 9.02 l 1.316,-7.368 c 2.167,2.312 3.251,4.117 3.251,5.418 0,0.167 -0.011,0.306 -0.033,0.417 -0.19,-0.045 -0.395,-0.067 -0.617,-0.067 -1.044,0 -1.567,0.634 -1.567,1.9"
             style="fill:#231200;fill-opacity:1;fill-rule:nonzero;stroke:none"
             id="path214" /></g><g
           id="g216"
           transform="translate(250.3267,507.5219)"><path
             d="m 0,0 c 0,0 -6.38,9.109 -8.222,7.375 0,0 -0.153,-3.196 3.53,-7.234 0,0 -5.286,-1.567 -6.63,-4.082 -1.345,-2.516 7.813,-2.877 12.444,0.373 z"
             style="fill:#231200;fill-opacity:1;fill-rule:nonzero;stroke:none"
             id="path218" /></g><g
           id="g220"
           transform="translate(341.1309,539.7177)"><path
             d="m 0,0 c 0,0 -0.04,11.316 2.421,11.08 0,0 1.933,-2.47 1.266,-8.022 0,0 5.13,2.059 7.635,0.883 2.505,-1.175 -4.641,-7.212 -10.2,-7.509 z"
             style="fill:#231200;fill-opacity:1;fill-rule:nonzero;stroke:none"
             id="path222" /></g><g
           id="g224"
           transform="translate(339.1553,543.5267)"><path
             d="m 0,0 c -2.373,1.04 -5.051,0.57 -7.155,-0.928 -3.51,-2.499 -7.031,-4.734 -10.522,-6.759 l 3.205,-7.48 c 0.474,-1.104 0.032,-2.409 -0.982,-2.898 -1.014,-0.49 -2.231,0.013 -2.703,1.117 l -3.107,7.248 c -2.739,-1.482 -5.447,-2.829 -8.106,-4.053 l 3.143,-7.337 c 0.474,-1.105 0.032,-2.409 -0.982,-2.899 -1.014,-0.49 -2.23,0.013 -2.703,1.117 l -3.196,7.46 c -3.332,-1.42 -6.561,-2.65 -9.645,-3.713 l 2.362,-7.515 c 0.362,-1.15 -0.209,-2.393 -1.267,-2.761 -1.059,-0.369 -2.221,0.271 -2.583,1.422 l -2.383,7.581 c -3.524,-1.105 -6.818,-1.995 -9.792,-2.701 l 1.091,-8.35 c 0.157,-1.199 -0.622,-2.3 -1.729,-2.446 -1.108,-0.146 -2.142,0.715 -2.299,1.915 l -1.045,7.999 c -3.473,-0.715 -6.333,-1.16 -8.438,-1.435 l 0.94,-7.201 c 0.157,-1.199 -0.621,-2.3 -1.729,-2.446 -1.107,-0.146 -2.142,0.715 -2.298,1.914 l -0.955,7.312 c -14.577,-0.962 -15.089,-3.452 -15.089,-3.452 -4.819,-7.314 -1.486,-13.064 1.876,-16.453 2.605,-2.626 6.091,-3.976 9.617,-3.894 10.948,0.255 32.001,5.901 54.936,15.207 C 5.94,-23.279 4.995,-14.945 4.995,-14.945 6.008,-5.038 3.006,-1.318 0,0"
             style="fill:#231200;fill-opacity:1;fill-rule:nonzero;stroke:none"
             id="path226" /></g><g
           id="g228"
           transform="translate(271.2256,551.5844)"><path
             d="m 0,0 c 0,0 12.447,0.595 12.977,-11.657 0.528,-12.251 0.694,-13.068 2.27,-15.154 0,0 -7.748,1.315 -6.83,10.238 C 9.337,-7.649 10.17,-2.68 0,0"
             style="fill:#231200;fill-opacity:1;fill-rule:nonzero;stroke:none"
             id="path230" /></g><g
           id="g232"
           transform="translate(294.0708,529.4047)"><path
             d="m 0,0 c 0,0 -2.971,2.779 -1.191,11.52 0.729,3.578 0.576,6.446 0.142,8.584 -0.568,2.799 -2.212,5.26 -4.525,6.935 -1.776,1.284 -4.251,2.683 -6.861,2.936 0,0 1.718,-0.613 3.583,-1.988 3.409,-2.514 4.973,-6.825 4.111,-10.972 -0.33,-1.586 -0.987,-3.48 -1.564,-5.237 C -7.519,8.08 -6.104,1.288 0,0"
             style="fill:#231200;fill-opacity:1;fill-rule:nonzero;stroke:none"
             id="path234" /></g><g
           id="g236"
           transform="translate(293.3511,557.0023)"><path
             d="m 0,0 c 0,0 6.211,-2.082 6.191,-8.05 -0.005,-1.388 -0.429,-2.735 -1.099,-3.949 -1.071,-1.938 -2.99,-5.924 -2.455,-8.774 0.731,-3.897 4.78,-6.64 4.78,-6.64 0,0 -2.158,4.034 0.458,10.077 C 10.493,-11.294 12.515,-3.489 0,0"
             style="fill:#231200;fill-opacity:1;fill-rule:nonzero;stroke:none"
             id="path238" /></g><g
           id="g240"
           transform="translate(308.5576,470.9437)"><path
             d="m 0,0 c -2.591,3.235 -5.234,4.149 -6.59,4.407 -0.936,0.178 -1.851,0.495 -2.616,1.064 -4.493,3.339 -7.269,11.666 -7.269,11.666 l -6.045,17.261 3.953,1.29 4.332,-12.272 c 0.401,-1.246 1.446,-2.056 2.651,-2.567 1.573,-0.667 2.972,0.291 3.773,1.17 1.207,1.322 0.54,3.054 -0.023,4.753 l -3.734,11.268 4.353,1.36 5.095,-12.718 c 0.689,-1.107 1.267,-2.043 1.933,-2.325 1.212,-0.515 2.416,0.406 2.993,1.229 0.844,1.206 0.361,2.724 -0.047,4.139 l -3.503,12.134 3.887,1.273 6.431,-18.226 c 0,0 4.593,-9.835 -0.065,-13.974 C 6.947,8.655 6.913,5.277 7.401,2.699 7.739,0.914 8.435,-0.785 9.345,-2.357 L 15.813,-13.533 6.344,-17.274 2.998,-5.911 C 2.369,-3.773 1.392,-1.739 0,0"
             style="fill:#231200;fill-opacity:1;fill-rule:nonzero;stroke:none"
             id="path242" /></g></g></g></g></svg>
