<svg viewBox="0 0 64 64" xmlns="http://www.w3.org/2000/svg"><path d="M12.955 33.153a1 1 0 00.537-1.927A7.507 7.507 0 018.3 26.071l.813.542A14.162 14.162 0 0017 29a1 1 0 000-2 12.167 12.167 0 01-6.773-2.051l-2.209-1.472a7.5 7.5 0 019.482-6.705l.343.1A51.955 51.955 0 0032 19a48.12 48.12 0 0010.368-1.189 1 1 0 00-.428-1.954A46.137 46.137 0 0132 17a50.043 50.043 0 01-13.62-2.06l-.343-.095a9.477 9.477 0 00-9.527 2.736l-1.581-3.953A1 1 0 005.2 13.4l-3 4a1 1 0 00.6 1.58l4.174.835a9.423 9.423 0 00-.633 1.648 9.518 9.518 0 006.614 11.69zm-8.2-15.822l.98-1.308.654 1.634z"/><path d="M58.8 13.4a1 1 0 00-1.729.228l-1.582 3.955a9.47 9.47 0 00-9.532-2.736 1 1 0 10.532 1.927 7.5 7.5 0 019.492 6.7l-2.208 1.471A12.167 12.167 0 0147 27a1 1 0 000 2 14.162 14.162 0 007.883-2.387l.811-.54a7.5 7.5 0 01-5.179 5.152l-.341.094c-2.748.764-5 1.3-7.174 1.7V29a1 1 0 00-1-1h-4a1 1 0 00-1 1v4.8q-.99.08-2 .125V29a1 1 0 00-1-1h-4a1 1 0 00-1 1v4.926q-1.011-.046-2-.125V29a1 1 0 00-1-1h-4a1 1 0 00-1 1v4.005a65.167 65.167 0 01-3.766-.8 1 1 0 00-.469 1.945c1.485.359 2.872.642 4.235.885V38a10.95 10.95 0 002.444 6.9c.022.027.042.057.064.085a11.207 11.207 0 00.8.869c.187.187.385.361.587.533.083.071.168.139.253.208A10.658 10.658 0 0027 47.823V61a1 1 0 001 1h8a1 1 0 001-1v-4a1 1 0 00-2 0v3h-6V48.574A10.966 10.966 0 0032 49a1 1 0 000-2 8.94 8.94 0 01-4.217-1.054c-.037-.02-.075-.039-.112-.06q-.346-.191-.674-.409a9 9 0 01-.737-.551c-.062-.052-.118-.11-.179-.163A9.434 9.434 0 0123 37.809V30h2v8a7.016 7.016 0 004.665 6.59A1 1 0 0031 43.648V30h2v13.648a1 1 0 001.335.942A7.016 7.016 0 0039 38v-8h2v8a9.007 9.007 0 01-5.4 8.233 1 1 0 00-.6.916v5.018a1 1 0 002 0V47.78A11 11 0 0043 38v-2.952c2.346-.419 4.75-.98 7.709-1.8l.342-.095a9.519 9.519 0 006.6-11.7 9.394 9.394 0 00-.631-1.638l4.18-.835a1 1 0 00.6-1.58zM27 38v-2.193q.992.076 2 .121v6.06A5 5 0 0127 38zm8 3.988v-6.061a61.54 61.54 0 002-.121V38a5 5 0 01-2 3.988zm22.614-24.331l.654-1.634.98 1.308z"/><path d="M28.108 21.439a1 1 0 10-.216 1.988A37.811 37.811 0 0032 23.65a37.811 37.811 0 004.108-.223 1 1 0 00-.216-1.988 36.043 36.043 0 01-7.784 0zm11.512-.359a.9.9 0 00-.54.54A1 1 0 0039 22a1.355 1.355 0 00.02.2.636.636 0 00.06.18.757.757 0 00.09.18 1.576 1.576 0 00.12.15 1.155 1.155 0 00.33.21A1 1 0 0040 23a1.052 1.052 0 00.71-.29l.12-.15a.757.757 0 00.09-.18.636.636 0 00.06-.18A1.355 1.355 0 0041 22a1 1 0 00-.08-.38 1.155 1.155 0 00-.21-.33 1 1 0 00-1.09-.21zm-15.24 0a.956.956 0 00-.58-.06.636.636 0 00-.18.06.757.757 0 00-.18.09 1.576 1.576 0 00-.15.12 1.155 1.155 0 00-.21.33A1 1 0 0023 22a1.355 1.355 0 00.02.2.636.636 0 00.06.18.757.757 0 00.09.18l.12.15.15.12a.757.757 0 00.18.09.636.636 0 00.18.06 1.355 1.355 0 00.2.02 1 1 0 00.38-.08 1.155 1.155 0 00.33-.21 1.576 1.576 0 00.12-.15.757.757 0 00.09-.18.636.636 0 00.06-.18A1.355 1.355 0 0025 22a.838.838 0 00-.08-.38.9.9 0 00-.54-.54zm8.33-14.37a1.014 1.014 0 000-1.42 1.032 1.032 0 00-.33-.21 1.021 1.021 0 00-1.09.21 1.014 1.014 0 000 1.42 1.014 1.014 0 001.42 0zM31 14a1 1 0 002 0v-4a1 1 0 00-2 0zm7.71-9.29a1.014 1.014 0 000-1.42 1.047 1.047 0 00-1.42 0 .933.933 0 00-.21.33A1 1 0 0037 4a1 1 0 001.71.71zM37 11a1 1 0 002 0V8a1 1 0 00-2 0zM26.71 4.71a1.014 1.014 0 000-1.42 1.047 1.047 0 00-1.42 0 .933.933 0 00-.21.33A1 1 0 0025 4a1 1 0 001.71.71zM25 12a1 1 0 002 0V8a1 1 0 00-2 0zm-4.29-7.29a1.014 1.014 0 000-1.42 1.047 1.047 0 00-1.42 0 .933.933 0 00-.21.33A1 1 0 0019 4a1 1 0 001.71.71zM19 10a1 1 0 002 0V8a1 1 0 00-2 0zm25.71-5.29a1.014 1.014 0 000-1.42 1.047 1.047 0 00-1.42 0 .933.933 0 00-.21.33A1 1 0 0043 4a1 1 0 001.71.71zM43 10a1 1 0 002 0V8a1 1 0 00-2 0z"/></svg>