<?xml version="1.0" ?><svg viewBox="0 0 64 64" xmlns="http://www.w3.org/2000/svg"><g id="outling-cut"><path d="M12.955,33.153a1,1,0,0,0,.537-1.927A7.507,7.507,0,0,1,8.3,26.071l.813.542A14.162,14.162,0,0,0,17,29a1,1,0,0,0,0-2,12.167,12.167,0,0,1-6.773-2.051L8.018,23.477A7.5,7.5,0,0,1,17.5,16.772l.343.1A51.955,51.955,0,0,0,32,19a48.12,48.12,0,0,0,10.368-1.189,1,1,0,0,0-.428-1.954A46.137,46.137,0,0,1,32,17,50.043,50.043,0,0,1,18.38,14.94l-.343-.095A9.477,9.477,0,0,0,8.51,17.581L6.929,13.628A1,1,0,0,0,5.2,13.4l-3,4a1,1,0,0,0,.6,1.58l4.174.835a9.423,9.423,0,0,0-.633,1.648A9.518,9.518,0,0,0,12.955,33.153Zm-8.2-15.822.98-1.308.654,1.634Z" fill='#500805'/><path d="M58.8,13.4a1,1,0,0,0-1.729.228l-1.582,3.955a9.47,9.47,0,0,0-9.532-2.736,1,1,0,1,0,.532,1.927,7.5,7.5,0,0,1,9.492,6.7l-2.208,1.471A12.167,12.167,0,0,1,47,27a1,1,0,0,0,0,2,14.162,14.162,0,0,0,7.883-2.387l.811-.54a7.5,7.5,0,0,1-5.179,5.152l-.341.094c-2.748.764-5,1.3-7.174,1.7V29a1,1,0,0,0-1-1H38a1,1,0,0,0-1,1v4.8q-.99.08-2,.125V29a1,1,0,0,0-1-1H30a1,1,0,0,0-1,1v4.926q-1.011-.046-2-.125V29a1,1,0,0,0-1-1H22a1,1,0,0,0-1,1v4.005c-1.213-.224-2.447-.476-3.766-.8a1,1,0,0,0-.469,1.945c1.485.359,2.872.642,4.235.885V38a10.95,10.95,0,0,0,2.444,6.9c.022.027.042.057.064.085a11.207,11.207,0,0,0,.8.869c.187.187.385.361.587.533.083.071.168.139.253.208A10.658,10.658,0,0,0,27,47.823V61a1,1,0,0,0,1,1h8a1,1,0,0,0,1-1V57a1,1,0,0,0-2,0v3H29V48.574A10.966,10.966,0,0,0,32,49a1,1,0,0,0,0-2,8.94,8.94,0,0,1-4.217-1.054c-.037-.02-.075-.039-.112-.06q-.346-.191-.674-.409a9,9,0,0,1-.737-.551c-.062-.052-.118-.11-.179-.163A9.434,9.434,0,0,1,23,37.809V30h2v8a7.016,7.016,0,0,0,4.665,6.59A1,1,0,0,0,31,43.648V30h2V43.648a1,1,0,0,0,1.335.942A7.016,7.016,0,0,0,39,38V30h2v8a9.007,9.007,0,0,1-5.4,8.233,1,1,0,0,0-.6.916v5.018a1,1,0,0,0,2,0V47.78A11,11,0,0,0,43,38V35.048c2.346-.419,4.75-.98,7.709-1.8l.342-.095a9.519,9.519,0,0,0,6.6-11.7,9.394,9.394,0,0,0-.631-1.638L61.2,18.98a1,1,0,0,0,.6-1.58ZM27,38V35.807q.992.076,2,.121v6.06A5,5,0,0,1,27,38Zm8,3.988V35.927c.674-.03,1.339-.07,2-.121V38A5,5,0,0,1,35,41.988ZM57.614,17.657l.654-1.634.98,1.308Z" fill='#500805'/><path d="M28.108,21.439a1,1,0,1,0-.216,1.988A37.811,37.811,0,0,0,32,23.65a37.811,37.811,0,0,0,4.108-.223,1,1,0,0,0-.216-1.988A36.043,36.043,0,0,1,28.108,21.439Z" fill='#500805'/><path d="M39.62,21.08a.9.9,0,0,0-.54.54A1,1,0,0,0,39,22a1.355,1.355,0,0,0,.02.2.636.636,0,0,0,.06.18.757.757,0,0,0,.09.18,1.576,1.576,0,0,0,.12.15,1.155,1.155,0,0,0,.33.21A1,1,0,0,0,40,23a1.052,1.052,0,0,0,.71-.29l.12-.15a.757.757,0,0,0,.09-.18.636.636,0,0,0,.06-.18A1.355,1.355,0,0,0,41,22a1,1,0,0,0-.08-.38,1.155,1.155,0,0,0-.21-.33A1,1,0,0,0,39.62,21.08Z" fill='#500805'/><path d="M24.38,21.08a.956.956,0,0,0-.58-.06.636.636,0,0,0-.18.06.757.757,0,0,0-.18.09,1.576,1.576,0,0,0-.15.12,1.155,1.155,0,0,0-.21.33A1,1,0,0,0,23,22a1.355,1.355,0,0,0,.02.2.636.636,0,0,0,.06.18.757.757,0,0,0,.09.18l.12.15.15.12a.757.757,0,0,0,.18.09.636.636,0,0,0,.18.06A1.355,1.355,0,0,0,24,23a1,1,0,0,0,.38-.08,1.155,1.155,0,0,0,.33-.21,1.576,1.576,0,0,0,.12-.15.757.757,0,0,0,.09-.18.636.636,0,0,0,.06-.18A1.355,1.355,0,0,0,25,22a.838.838,0,0,0-.08-.38.9.9,0,0,0-.54-.54Z" fill='#500805'/><path d="M32.71,6.71a1.014,1.014,0,0,0,0-1.42,1.032,1.032,0,0,0-.33-.21,1.021,1.021,0,0,0-1.09.21,1.014,1.014,0,0,0,0,1.42,1.014,1.014,0,0,0,1.42,0Z" fill='#500805'/><path d="M31,14a1,1,0,0,0,2,0V10a1,1,0,0,0-2,0Z" fill='#500805'/><path d="M38.71,4.71a1.014,1.014,0,0,0,0-1.42,1.047,1.047,0,0,0-1.42,0,.933.933,0,0,0-.21.33A1,1,0,0,0,37,4a1,1,0,0,0,1.71.71Z" fill='#500805'/><path d="M37,11a1,1,0,0,0,2,0V8a1,1,0,0,0-2,0Z" fill='#500805'/><path d="M26.71,4.71a1.014,1.014,0,0,0,0-1.42,1.047,1.047,0,0,0-1.42,0,.933.933,0,0,0-.21.33A1,1,0,0,0,25,4a1,1,0,0,0,1.71.71Z" fill='#500805'/><path d="M25,12a1,1,0,0,0,2,0V8a1,1,0,0,0-2,0Z" fill='#500805'/><path d="M20.71,4.71a1.014,1.014,0,0,0,0-1.42,1.047,1.047,0,0,0-1.42,0,.933.933,0,0,0-.21.33A1,1,0,0,0,19,4a1,1,0,0,0,1.71.71Z" fill='#500805'/><path d="M19,10a1,1,0,0,0,2,0V8a1,1,0,0,0-2,0Z" fill='#500805'/><path d="M44.71,4.71a1.014,1.014,0,0,0,0-1.42,1.047,1.047,0,0,0-1.42,0,.933.933,0,0,0-.21.33A1,1,0,0,0,43,4a1,1,0,0,0,1.71.71Z" fill='#500805'/><path d="M43,10a1,1,0,0,0,2,0V8a1,1,0,0,0-2,0Z" fill='#500805'/></g></svg>
