<svg xmlns="http://www.w3.org/2000/svg" viewBox="0 0 407.51 407.51" opacity=".7"><g fill="#fff"><path d="M303.709 407.51H120.847a10.584 10.584 0 01-10.393-8.558L59.246 135.713c-1.112-5.735 2.629-11.293 8.364-12.405 5.841-1.182 11.311 2.612 12.423 8.382l49.549 254.663H294.41l32.945-254.01c.759-5.805 6.052-10.023 11.858-9.14 5.805.741 9.899 6.07 9.14 11.858l-34.144 263.221a10.588 10.588 0 01-10.5 9.228zm57.296-302.042H46.488c-5.858 0-10.587-4.747-10.587-10.587s4.729-10.587 10.587-10.587h314.535a10.573 10.573 0 0110.587 10.587c-.018 5.841-4.747 10.587-10.605 10.587zm-43.479-47.184H89.967c-5.858 0-10.587-4.747-10.587-10.587S84.127 37.11 89.967 37.11h227.559c5.841 0 10.587 4.747 10.587 10.587s-4.729 10.587-10.587 10.587z"/><path d="M153.332 350.815c-5.841 0-10.587-4.747-10.587-10.587v-187.98c0-5.841 4.747-10.587 10.587-10.587 5.858 0 10.587 4.747 10.587 10.587v187.98c.001 5.84-4.728 10.587-10.587 10.587zm50.414 0c-5.858 0-10.587-4.747-10.587-10.587v-187.98c0-5.841 4.747-10.587 10.587-10.587 5.858 0 10.587 4.747 10.587 10.587v187.98c.001 5.84-4.728 10.587-10.587 10.587zm50.414 0c-5.858 0-10.587-4.747-10.587-10.587v-187.98c0-5.841 4.747-10.587 10.587-10.587 5.841 0 10.587 4.747 10.587 10.587v187.98c.001 5.84-4.746 10.587-10.587 10.587zM230.585 17.646h-53.678c-4.87 0-8.823-3.953-8.823-8.823S172.037 0 176.907 0h53.678c4.87 0 8.823 3.953 8.823 8.823s-3.952 8.823-8.823 8.823z"/></g></svg>