<?xml version="1.0" encoding="iso-8859-1"?>
<!-- Generator: Adobe Illustrator 19.1.0, SVG Export Plug-In . SVG Version: 6.00 Build 0)  -->
<svg version="1.1" id="Capa_1" xmlns="http://www.w3.org/2000/svg" xmlns:xlink="http://www.w3.org/1999/xlink" x="0px" y="0px"
	 viewBox="0 0 407.51 407.51" style="enable-background:new 0 0 407.51 407.51;" xml:space="preserve">
<g>
	<g>
		<path style="fill:#fff;" d="M303.709,407.51H120.847c-5.064,0-9.423-3.582-10.393-8.558L59.246,135.713
			c-1.112-5.735,2.629-11.293,8.364-12.405c5.841-1.182,11.311,2.612,12.423,8.382l49.549,254.663H294.41l32.945-254.01
			c0.759-5.805,6.052-10.023,11.858-9.14c5.805,0.741,9.899,6.07,9.14,11.858l-34.144,263.221
			C313.52,403.558,309.038,407.51,303.709,407.51z"/>
		<path style="fill:#fff;" d="M361.005,105.468H46.488c-5.858,0-10.587-4.747-10.587-10.587s4.729-10.587,10.587-10.587h314.535
			c5.858,0,10.587,4.729,10.587,10.587C371.592,100.722,366.863,105.468,361.005,105.468z"/>
		<path style="fill:#fff;" d="M317.526,58.284H89.967c-5.858,0-10.587-4.747-10.587-10.587s4.747-10.587,10.587-10.587h227.559
			c5.841,0,10.587,4.747,10.587,10.587S323.384,58.284,317.526,58.284z"/>
		<g>
			<path style="fill:#fff;" d="M153.332,350.815c-5.841,0-10.587-4.747-10.587-10.587v-187.98
				c0-5.841,4.747-10.587,10.587-10.587c5.858,0,10.587,4.747,10.587,10.587v187.98C163.92,346.068,159.191,350.815,153.332,350.815
				z"/>
			<path style="fill:#fff;" d="M203.746,350.815c-5.858,0-10.587-4.747-10.587-10.587v-187.98
				c0-5.841,4.747-10.587,10.587-10.587c5.858,0,10.587,4.747,10.587,10.587v187.98
				C214.334,346.068,209.605,350.815,203.746,350.815z"/>
			<path style="fill:#fff;" d="M254.16,350.815c-5.858,0-10.587-4.747-10.587-10.587v-187.98c0-5.841,4.747-10.587,10.587-10.587
				c5.841,0,10.587,4.747,10.587,10.587v187.98C264.748,346.068,260.001,350.815,254.16,350.815z"/>
		</g>
		<path style="fill:#fff;" d="M230.585,17.646h-53.678c-4.87,0-8.823-3.953-8.823-8.823S172.037,0,176.907,0h53.678
			c4.87,0,8.823,3.953,8.823,8.823S235.456,17.646,230.585,17.646z"/>
	</g>
</g>
</svg>
