<svg width="48" height="48" xmlns="http://www.w3.org/2000/svg"><path fill-rule="evenodd" clip-rule="evenodd" d="M24 0c13.255 0 24 10.745 24 24S37.255 48 24 48 0 37.255 0 24 10.745 0 24 0zm6.394 20.958c-.117-.948-.408-1.692-.926-2.352-.672-.85-1.53-1.358-2.802-1.66-.83-.2-1.164-.178-1.464.096-.279.257-.334.771-.12 1.104.15.242.323.328.804.423.642.118 1.085.27 1.488.501.855.494 1.253 1.267 1.296 2.518.02.588.07.769.276.977.38.381 1.057.307 1.344-.149.106-.172.122-.247.133-.646a6.33 6.33 0 00-.029-.812zm.012-5.818c2.033 1.645 3.17 3.982 3.339 6.888.07 1.144-.024 1.517-.427 1.729a.862.862 0 01-1.06-.164c-.188-.193-.26-.456-.258-.923.009-1.29-.288-2.73-.772-3.73a7.204 7.204 0 00-2.51-2.876c-.953-.636-2.213-1.065-3.435-1.172-.793-.07-1.076-.204-1.228-.584-.095-.227-.07-.62.04-.796a1.09 1.09 0 01.506-.39c.175-.05 1.2.039 1.755.15 1.518.309 2.904.944 4.05 1.868zm7.046 18.076a3.194 3.194 0 00-.284-.569c-.597-.901-3.803-3.41-5.404-4.231-.915-.47-1.592-.627-2.094-.48-.54.152-.824.404-1.729 1.528-.365.45-.739.873-.838.94-.247.17-.73.308-1.07.308-.792-.005-2.227-.517-3.33-1.191-.858-.522-1.957-1.457-2.8-2.381-.995-1.087-1.672-2.045-2.207-3.127-.692-1.39-.867-2.239-.578-2.86a2.3 2.3 0 01.208-.375c.043-.047.488-.413.98-.811.967-.769 1.123-.944 1.303-1.47.227-.67.166-1.353-.185-2.04-.27-.523-.975-1.661-1.487-2.396-.677-.968-2.364-3.036-2.7-3.316-.606-.494-1.383-.58-2.24-.247-.905.351-2.6 1.717-3.325 2.67-.654.864-.905 1.476-.943 2.283-.033.664.024.939.374 1.788 2.743 6.66 6.835 11.978 12.458 16.2 2.936 2.206 5.982 3.886 9.142 5.034 1.842.668 2.643.702 3.585.151.398-.237 1.383-1.247 1.933-1.983.91-1.224 1.246-1.788 1.34-2.239.066-.308.014-.844-.109-1.186zm-1.21-15.015c.576 1.502.853 2.85.914 4.494.01.325.005.92-.016 1.322-.044.773-.086.926-.309 1.13-.357.336-1.054.256-1.318-.148-.138-.217-.157-.376-.13-1.278.076-2.67-.464-4.76-1.764-6.85-1.554-2.507-3.88-4.196-6.902-5.023-.771-.21-1.42-.338-2.431-.474-.658-.087-.803-.123-.965-.223-.49-.314-.497-1.11-.008-1.43.252-.168.439-.175 1.261-.07 2.413.302 4.566 1.019 6.335 2.102 1.268.778 2.068 1.476 3.097 2.7 1.089 1.304 1.666 2.27 2.235 3.748z"/></svg>